<?xml version="1.0" encoding="UTF-8"?>
<svg version="1.1" viewBox="0 0 1600 395" width="200" height="80" xmlns="http://www.w3.org/2000/svg">
<path transform="translate(0)" d="m0 0h1600v395h-1600z" fill="#FCFDFD"/>
<path transform="translate(1206,48)" d="m0 0h98l12 3 14 7 10 8 8 9 8 14 4 10 1 6v21l-3 12-7 14-8 10-8 7-5 3 1 4 13 22 15 24 11 18 4 7-1 1h-49l-8-11-11-18-12-19-10-16h-31l-1 63h-45z" fill="#49464C"/>
<path transform="translate(79,45)" d="m0 0h37l27 1 20 3 16 4 19 8 12 8 7 6 7 8 4 5 3 3v2h2l2 6h2l8 16 5 11 6 21 1 6v27l-6 22-7 14-9 12-10 10-10 7-17 9-20 7-18 4-20 2h-24l-26-2-30-5-31-7-2-1v-2l40-1 23-1 22-3 23-5 13-4 12-5 12-7 10-9 7-11 4-10 2-10v-23l-4-16-6-10-4-5-9-6-2-1v-2l-5-1-10-4-14-3-10-1h-43l-22 3-37 7-14 3-3-1v-72l7-2 30-3z" fill="#307CB0"/>
<path transform="translate(425,56)" d="m0 0h57l8 24 5 17 15 44 5 17 13 38 5 17 7 20 5 17 6 18 9 35 2 10h2l1-10 6-21 2-8 6-20 12-36 7-20 3-3 9-5 13-5 5-3 8-3 4-3 6-3 9-6h2v-2l4-2 3-3-1 5-15 43-15 42-21 60-9 25-9 26-3 4h-57l-2-1-3-10-3-8-7-20-14-41-20-58-19-53-17-48-20-56-4-12z" fill="#4A474D"/>
<path transform="translate(831,48)" d="m0 0h35l9 10 11 14 13 16 11 14 13 16 10 13 14 17 10 13 4 4v-116l1-1h44v199h-36l-10-11-11-14-14-17-11-14-14-17-26-32-6-8-2-1v114h-45z" fill="#4A464D"/>
<path transform="translate(1455,48)" d="m0 0h38l6 16 4 10 6 16 4 9 7 20 7 18 4 10 6 16 4 10 7 18 7 19 4 10 5 13 5 12v2h-48l-4-8-12-36h-63l-12 36-3 8h-48l3-11 5-11 4-12 5-12 5-14 4-9 6-16 5-14 4-9 6-17 4-9 6-17 4-9 4-12 4-9 6-16z" fill="#313032"/>
<path transform="translate(327,55)" d="m0 0h58l3 7 7 20 5 15 3 8 7 20 5 13 11 33 3 8 4 12 2 4v3l-30 6-18 4-4-8-14-43-7-24-5-22v-2h-2l-4 18-9 31-18 54-5 13-24 11-19 9-18 12-4 3 3-9 3-10 3-7 3-10 4-10 8-24 3-7 7-21 4-10 7-21 4-10 3-10 3-7 8-24 4-10 3-10z" fill="#4A464D"/>
<path transform="translate(1047,48)" d="m0 0h134v40h-90v44h74v36l-1 1h-73v78h-45v-198z" fill="#4A464D"/>
<path transform="translate(428,210)" d="m0 0h6l-4 3-23 11-20 12-17 12-16 13-11 10-7 6-8 10-11 13-13 18-14 24-11 23-3 6h-79l1-5 12-25 12-19 10-13 13-15 11-11 11-9 11-8 16-10 16-9 16-8 9-4 26-9 25-7 24-6z" fill="#317CB1"/>
<path transform="translate(82,69)" d="m0 0h37l30 3 22 4 14 4 15 8 9 7 8 8 10 15 7 14 5 17 2 9v27l-4 16-8 16-8 10-7 7-13 8-13 6-10 3 5-5 6-5h2v-2h2l2-4 8-11 6-12 4-13 2-15v-14l-3-16-5-12-7-11-10-10-14-8-13-5-24-5-19-2h-28l-29 3-26 4-1-1 1-22 1-12 6-2z" fill="#74BCE6"/>
<path transform="translate(746,48)" d="m0 0h44l1 1v198h-45z" fill="#4A464C"/>
<path transform="translate(229,92)" d="m0 0 4 1 2 6h2l8 16 5 11 6 21 1 6v27l-6 22-7 14-9 12-10 10-10 7-17 9-20 7-18 4-20 2h-24l-26-2-30-5-31-7-2-1v-2l40-1 23-1 22-3 23-5 13-4 12-5 12-7 10-9 7-11 4-10 2-10v-23l-4-16-6-10-4-5-5-5 4 2 6 5v2h2l5 8 2-3v-12l4 2 7 9 6 13 3 11 1 8v14l-3 19-5 14-6 10-9 12h-2v2l-12 9 16-6 13-7 9-7 9-10 8-14 5-15 1-6v-27l-5-20-6-15-3-5-1-8h3v-2l2-1h6l-6-11z" fill="#2D5B81"/>
<path transform="translate(440,222)" d="m0 0h4l5 13 3 9 4 11 4 12 3 7 3 10 3 7 4 13 3 7 5 16 3 7 9 27 1 4h-57l-10-30-18-57-10-31 1-4 18-10 5-3 10-5z" fill="#4A464D"/>
<path transform="translate(86,124)" d="m0 0h4v113l-5 1-26 1h-24v-106l31-6z" fill="#4A464C"/>
<path transform="translate(700,46)" d="m0 0 1 3-13 38-9 25-6 19-5 8-10 8-18 10-21 10-11 5h-2l4-16 12-37 9-27 6-21 3-8 16-5 29-8z" fill="#317CB0"/>
<path transform="translate(35,268)" d="m0 0 4 1 24 5 27 4v93h-55z" fill="#4A464D"/>
<path transform="translate(746,291)" d="m0 0h36l10 3 10 6 7 9 5 12 1 4v13l-4 13-6 10-12 9-10 3h-36l-1-1-1-18v-61z" fill="#28446C"/>
<path transform="translate(1421,291)" d="m0 0h41l10 5 7 8 3 6v16l-7 10-5 4-2 1 1 5 14 22 2 5h-12l-6-7-5-8v-3h-2l-6-10-20-1v29h-11l-2-2z" fill="#27456E"/>
<path transform="translate(351,248)" d="m0 0 2 1-9 8-8 7-23 23-11 14-7 10-10 16-12 25-4 10h-41l1-6 11-21 8-12 10-13 20-20 14-11 15-10 22-12z" fill="#74BCE6"/>
<path transform="translate(1252,88)" d="m0 0h47l6 4 7 8 3 8v14l-4 11-7 8-8 3h-44l-1-1v-54z" fill="#F9FBFD"/>
<path transform="translate(1259,291)" d="m0 0h39l10 5 8 9 3 9v8l-4 10-6 7-7 4-4 1-26 1-1 28h-11l-1-1z" fill="#27446D"/>
<path transform="translate(600,317)" d="m0 0 5 1 1 9-9 25-4 11-2 2h-57l-2-1-3-10-3-8-6-17-1-7 4 2v-2h2v-3l5 1 1 1h21l2 1 17 1 25 1 2-4z" fill="#323032"/>
<path transform="translate(222,112)" d="m0 0 4 4 8 16 5 17 2 9v27l-4 16-8 16-8 10-7 7-13 8-13 6-10 3 5-5 6-5h2v-2h2l2-4 8-11 6-12 4-13 2-15v-14l-3-16-2-8 1-11v-18l1-2h9z" fill="#4AA3D8"/>
<path transform="translate(327,55)" d="m0 0h58l3 7 7 20 4 12-1 4-3 1-5-5-2-3-8 2v2l-5 2-9 1-21-6-6-3-12-1v2h-2v2l-5 3-3 4-5 1 1-7 4-13 4-10 3-10z" fill="#313032"/>
<path transform="translate(1190,302)" d="m0 0h13l8 4 7 7 4 8 1 5v12l-4 11-9 10-6 3-10 1-9-3-8-6-6-9-1-5v-16l4-10 7-8z" fill="#FCFDFD"/>
<path transform="translate(1189,291)" d="m0 0h14l11 4 9 7 6 7 3 5 3 12v15l-4 11-7 9-8 7-8 4-9 2h-10l-10-4-3-2v-2l-4-2-5-5-6-10-3-8v-17l4-12 7-10 8-7 6-3zm1 11-9 4-7 8-4 10v16l2 6 6 9 9 6 7 2 10-1 8-5 7-8 4-11v-12l-3-10-9-10-8-4z" fill="#29456D"/>
<path transform="translate(1341,291)" d="m0 0h55v11h-43l1 23 36 1v11l-36 1v23l44 1v10l-1 1h-56l-1-39v-40z" fill="#2E597D"/>
<path transform="translate(758,302)" d="m0 0h23l11 4 7 8 3 7 1 5v11l-4 13-5 6-6 4-9 2h-21z" fill="#FCFDFD"/>
<path transform="translate(839,291)" d="m0 0h55v11l-42 1v22l36 1v10h-36v25l44 1v9l-1 2h-55l-1-1z" fill="#28466F"/>
<path transform="translate(1008,291)" d="m0 0h54v10l-1 1-40 1v22l36 1v10h-36v25l43 1v10l-1 1h-54l-1-1z" fill="#284771"/>
<path transform="translate(685,63)" d="m0 0 1 3-15 44-5 10-13 9-26 12h-2l1-6 16-50 4-10z" fill="#74BCE6"/>
<path transform="translate(1529,291)" d="m0 0h14l9 2 8 4 3 2-2 5-3 4-5-2-8-3-4-1h-12l-7 3-3 6 1 7 6 5 20 5 10 4v2l5 2 4 5 2 5v9l-4 8-8 7-11 4h-15l-14-4-11-6 1-6 2-5 6 2 10 5 11 2h7l8-3 3-3 1-6-3-5-8-4-14-4-10-4-6-4-4-5-2-3v-12l5-9 6-5 7-3z" fill="#3580B4"/>
<path transform="translate(1219,55)" d="m0 0h12l14 2-3-2h8l20 3 9 3-2 2-3 1v2l6 1-4 4-9-1-2-3-4-1v2h-5v2h-2l-1 3-2 1 2 4-4 4-5 2-2 8v7l-1 6v28l-3 6-4 1-2-4 1-11-3-7 1-4 3-4v-4l-4-2-1-5 2-3h-2l-2 6v9l-2 3h-3l1 6-2 2-4-1-1-6 1-4-1-5v-15l-2-15-1-14 2-5z" fill="#423E41"/>
<path transform="translate(425,56)" d="m0 0h57v2h-3l1 13 3 11 3 8 3 9 3 8 2 3 1 6 2 5 1 10-4-2-5-9-4-14-4-12-4-9-2-4h-2l-4-8-5-1h-8l-3 4-1 4v11l1 8v7l3 11 1 13 1 7v2h-2l-2-4h-2l-19-54-8-23z" fill="#5A5661"/>
<path transform="translate(428,210)" d="m0 0h6l-4 3-23 11-20 12-17 12-16 13-11 10-7 6-5 6h-2v-3l-4 1-8 7-7 8h-2v2l-2-1 7-11 29-29 10-8-3 1h-7l-4-7-1-8 9-4 15-5 25-7 24-6z" fill="#2F5D82"/>
<path transform="translate(1474,97)" d="m0 0 2 3 11 36 8 25 2 6v4l-4 1h-43l1-8 18-55 3-10z" fill="#F7FAFC"/>
<path transform="translate(985,290)" d="m0 0 2 1-3 10-15 36-7 17-6 16-2 3h-8l-4-4-6-16-19-46-6-16h13l4 10 5 14 6 16 8 20 3 5 4-10 5-15 5-12 3-10 5-12 3-6z" fill="#28456D"/>
<path transform="translate(1088,291)" d="m0 0h12l1 5v65l44 1v10l-1 1h-56z" fill="#3A85B8"/>
<path transform="translate(683,72)" d="m0 0h2l-1 6-8 24v3l5-3-1 7-7 22-5 8-10 8-18 10-21 10-11 5h-2l4-16 4-9 2 3 3-1 2-5 6-2v-2l26-12 12-8 5-10z" fill="#2D5C81"/>
<path transform="translate(35,268)" d="m0 0 4 1 24 5 24 4 2 1v54h-1l-1-20-4-14-3-3-7 1h-8l-8-1-7-5-5 1-6 9h-3z" fill="#313032"/>
<path transform="translate(834,78)" d="m0 0h2l2 10v16l1 9v5l-1 2 1 59 2 19v6l-2 2-3-4-1 3v17l1 3 3-5 1 2-4 9 6 3h3l4 6 1 5 1 2h-20v-104l1-56z" fill="#59555F"/>
<path transform="translate(305,172)" d="m0 0 3 1 1 7-1 3 1 3-1 2 4 1h-3l2 7-4 4-3 1h3l2 3-1 5-3 6h-4v2l-9 5-4 2 1 3 13 1 4 1-9 5-2 2-19 9-18 12-4 3 3-9 3-10 3-7 2-7 1 2 10-1v-2l6-4 4-6 1-6 3 1-2 5 3-1 3-7h2v-8l6-11 3-12-2-4z" fill="#5A5761"/>
<path transform="translate(1271,302)" d="m0 0h27l6 5 3 6v8l-5 9-7 4h-17l-7-2z" fill="#FAFCFD"/>
<path transform="translate(1434,302)" d="m0 0h27l7 6 2 4v10l-3 6-5 4-2 1-18 1-8-1z" fill="#FDFDFD"/>
<path transform="translate(1421,291)" d="m0 0h1l1 50h2l6-2 3 1v-7h24l-2 1v2l-3 1-13 1-4 4h18l1-3 7 1v2l5-1 5 10 13 20v2h-12l-6-7-5-8v-3h-2l-6-10-20-1v29h-11l-2-2z" fill="#408BBD"/>
<path transform="translate(1340,294)" d="m0 0h1l1 35 1 12 5-1 4 1v-4l2 1v23l44 1v10l-1 1h-56l-1-39z" fill="#3782B6"/>
<path transform="translate(1227,337)" d="m0 0 5 2 2 3-1 4-3 7-6 8-8 7-8 4-9 2h-10l-10-4-3-2v-2l-4-2-4-3-1-5-2-6h2l-1-4 5 2 2-2 6 9 10 6 10 1 9-3 8-7 4-8 2-3v2h2l2-5z" fill="#347FB3"/>
<path transform="translate(1529,291)" d="m0 0h14l9 2 8 4 3 2-2 5-3 4-5-2-8-3-4-1h-12l-7 3-3 6 1 7 6 5 5 2-4 2-2 7-7-1-6-4-4-5-2-3v-12l5-9 6-5 7-3z" fill="#29476F"/>
<path transform="translate(86,124)" d="m0 0h4v21l-1 17h-1l-1-7-3-3-2-6-5 3-3 2h-8l-8-4-2-6-7-3h-9l-4-2 1-3 12-3z" fill="#323032"/>
<path transform="translate(745,293)" d="m0 0h1l1 60 1 6 1-3 5-1 2 2 1-38h1v43l21-1 9-2 6-4 3-3v3l5-1 1 3v3l2 1-12 9-10 3h-36l-1-1-1-18z" fill="#3A85B8"/>
<path transform="translate(1008,321)" d="m0 0h1l1 32 3-5h3v2h2l1-12 2-1v24l43 1v10l-1 1h-54l-1-1z" fill="#3682B5"/>
<path transform="translate(839,325)" d="m0 0h1l1 32 2-4 6 1 1-13 2-4v24l44 1v9l-1 2h-55l-1-1z" fill="#3782B6"/>
<path transform="translate(1299,331)" d="m0 0 2 1-1 2-1 6-2 2 1 2-26 1-1 28h-11l-1-1v-39h1l1 7 6-5 4-1 1-2 6 1h17z" fill="#337FB3"/>
<path transform="translate(35,173)" d="m0 0h1l1 58 5-1 1-3 4-3 2-7 6-1 3 1 10-2 3 3-1 5-3 5 2 3-2 3 4 2h12l4-4 1 1 1-14h1v18l-5 1-26 1h-24z" fill="#5A5761"/>
<path transform="translate(1342,291)" d="m0 0h54v11l-43 1-2 7-3 1h-6z" fill="#274771"/>
<path transform="translate(1019,316)" d="m0 0h1l1 9 36 1v10l-36 1-1 1-1 16-1-4-5-1-3 6h-1v-26l3-8 5-1 1 1z" fill="#2D5A7F"/>
<path transform="translate(443,319)" d="m0 0 5 2 4 2 5-2 3 1 2 7 5 7 4 7 8 5 4 2-5 2-5-1-1 3-7-1-7-2-2-4h-2l-2-3h-2l-2 6-6 2-2-1v-2l4-2v-11l-2-11v-5z" fill="#5B5761"/>
<path transform="translate(911,291)" d="m0 0h13l4 10 5 14 6 16 5 12v5l-4-1-1-2-1 1 1 10-3-3-19-46z" fill="#2A456D"/>
<path transform="translate(1396,225)" d="m0 0h4l3 5 4 3 12 1 2 6-2 5-4 1-4-2h-8v3h-24l3-11 4-10 3 2 3 1 1-3z" fill="#49464D"/>
<path transform="translate(844,323)" d="m0 0 6 1 2 3 12 1h19l2 3-1 3h3v-6h1v8l-36 1-1 4-1 15-1-2h-6l-2 6h-1v-24l2-9z" fill="#2D5A7F"/>
<path transform="translate(212,73)" d="m0 0 8 6 7 7 4 5-2 1 6 12 1 3-8 1v2h-3l1 6-4-4-8-11-8-8-5-3v-2l12-2 2-2h3l-7-9z" fill="#2D6C9B"/>
<path transform="translate(746,50)" d="m0 0 2 3v179l-1 14 5-1h14l2-3h6v3l8-1 3-5-1-6-2-4-6 1-5 2-5-1 1-7 7-2 1-4 3-2 3 1v-6h3v6l1 2 1 10 2 7v9l-9 2h-33z" fill="#5A5660"/>
<path transform="translate(1089,291)" d="m0 0h11v37l-1 11-2 1h-8z" fill="#30597C"/>
<path transform="translate(1481,310)" d="m0 0h1v16l-7 10-5 4-4 2h-4v-2h-6l-2 3h-19l3-5 2-1 16-1v-2l9-5 3-4 5-11 6-1 1 1z" fill="#2E6E9D"/>
<path transform="translate(1455,339)" d="m0 0 7 1v2l5-1 5 10 13 20v2h-12l-6-7-5-8v-3h-2l-6-10-19-1v-1l19-1z" fill="#3580B4"/>
<path transform="translate(440,222)" d="m0 0h4l5 13 1 1v6l-2 2-4-1-1-5-4-1-1-3-4 2v2l3 1 1 7-2 7-2 2-6-1-2-4-1-7 1-3-2-5 3-1v-2h3v-5z" fill="#333235"/>
<path transform="translate(938,344)" d="m0 0 3 3 3 1 1-2 5 10 2-5 4 1v-2l3-1 2 9-6 14-1 1h-8l-4-4-4-10v-6l-1-7z" fill="#337EB2"/>
<path transform="translate(265,231)" d="m0 0 4 2 3 1 16 1 2-1 1 3-20 11-14 10-3 2 3-9 3-10z" fill="#4B4950"/>
<path transform="translate(1433,306)" d="m0 0h1l1 32-1 2-8 1-3 2-1-2v-29h3l1-2h5l1 1z" fill="#2D5B81"/>
<path transform="translate(392,119)" d="m0 0 3 1v2h2l2 5 2 4 9 13-3 1 3 3-1 3-9-12-4-4-11-2-4 1-1 10 3 12-2 7-3-1 1-2h2v-5l-5-1-1-3h3l-1-12-3-7v-5l2 3 5-4h9l4-2-4-2v-2z" fill="#423E41"/>
<path transform="translate(1165,319)" d="m0 0h2l3 6 1 15 1 8h-4-1l-1 3 3 6v2l-3-1-7-13-1-4v-17l5-2v-2z" fill="#2F5C81"/>
<path transform="translate(746,317)" d="m0 0h1l1 9 5-3 3 4 1 7v25l-3-3h-5l-1 7h-1l-1-10z" fill="#2D5A7F"/>
<path transform="translate(1299,331)" d="m0 0 2 1-1 2-1 6-3 3-32 1-2 2-2 4v-8l7-7 4-1 1-2 6 1h17z" fill="#2E6D9C"/>
<path transform="translate(335,235)" d="m0 0h2l3 9 2 3v3l4 1-17 7-4-1-4-5-1-7-1-3z" fill="#2E6F9E"/>
<path transform="translate(1531,325)" d="m0 0 15 3 10 4v2l5 2 4 5-1 4v-2l-3-1-3-4-3-2h-5l-5 4h-7l-10-3-4-3 3-8z" fill="#2F6F9E"/>
<path transform="translate(1513,307)" d="m0 0 6 2 1 9 6 5 5 2-4 2-2 7-7-1-6-4-4-5v-7l2-8h3z" fill="#2E5C81"/>
<path transform="translate(1311,314)" d="m0 0 5 3 2 9-6 10-7 6-9 1 3-5v-5l6-9 1-3h2l2-6z" fill="#2E5C82"/>
<path transform="translate(809,327)" d="m0 0 2 1 2 5 1 10-5 12-4 5h-2l-1-5-6 1 3-9 3-10h2l3-7z" fill="#2E5C82"/>
<path transform="translate(505,261)" d="m0 0 3 2v2h2l7 10 3 3v2l17 4 2-4 5-7h1v6l-3 6-13 4h-6v2l10 2-2 2-7-1-5-5-2-6-4-4-2-3-2 2-1-8h2l-1-2-4-1-1-4z" fill="#423E41"/>
<path transform="translate(342,257)" d="m0 0 2 1-10 10 9-6 2 1-4 7 2 1-7 6-5 6h-2v-3l-4 1-8 7-7 8h-2v2l-2-1 7-11z" fill="#2D6D9C"/>
<path transform="translate(1259,291)" d="m0 0h1l1 28 3-3 5 1 1-13h1l1 31-6 2-6 5-1-9z" fill="#31597B"/>
<path transform="translate(968,323)" d="m0 0 3 4-2 10-7 17-2 1-2-5h-2v2l-3 1 1-7 5-15 1 2h2l2-5h2l1-4z" fill="#2D5B80"/>
<path transform="translate(437,350)" d="m0 0 3 1 1 5 5 2 10 3-1 2h24l1-3 5-1 5 4 3 1 1-2v3h-57l-4-12v-2z" fill="#575762"/>
<path transform="translate(1481,310)" d="m0 0h1v16l-7 10-3 3h-2l1-4-1-3v-3h-2l1-7 4-8 6-1 1 1z" fill="#2E5D83"/>
<path transform="translate(178,115)" d="m0 0 6 1 9 7 3 4v13l-3 3-5-7v-2h-2l-4-5-4-3-4-1 1-3 5 2 2 1 3-1-3-5z" fill="#2D6C9B"/>
<path transform="translate(633,108)" d="m0 0h1l-1 8-8 25 2 1-7 5-1 2h-2l-1 2-3-3 3-11 4-12 4-3 1 2-2 10 2-5h2l1-7z" fill="#316F9D"/>
<path transform="translate(663,160)" d="m0 0 1 4-4 10-4 11-3 1-2-3-6-3-3-1 1-2h-2l-1 2-3-1 9-5 9-6h2v-2l4-2z" fill="#585C69"/>
<path transform="translate(750,48)" d="m0 0h40l1 1v62h-1v-53l-5-2-1-3-7-2-15-1-9 2h-5z" fill="#426787"/>
<path transform="translate(1229,321)" d="m0 0h5l1 5v15l-2 1-4-4h-2l-3 5h-2l1-15 2-6z" fill="#2E5C82"/>
<path transform="translate(495,172)" d="m0 0h1l1 7 3 3 4 9 1 4-2 10-2 3h-4l-5-9 1-3 3 2v-15l-1-2z" fill="#5A5660"/>
<path transform="translate(683,72)" d="m0 0h2l-1 6-8 24v3l5-3-1 7-5 16-3-2-4-1 1-5 4-11-1-2z" fill="#2D6A97"/>
<path transform="translate(1053,49)" d="m0 0h127v38l-4-1h2l-1-5 1-7v-16l-1-5-3-2-121-1z" fill="#312F31"/>
<path transform="translate(929,325)" d="m0 0 4 2 6 9 2-1 3 8v5l-4-1-1-2-1 1 1 10-3-3-6-14z" fill="#2E5A80"/>
<path transform="translate(1089,291)" d="m0 0h10v11l-3 8-4 3-2-1-1 2z" fill="#26426C"/>
<path transform="translate(268,239)" d="m0 0h7l4 2-1 3-16 10-8 6 3-9 2-7h6l1-3h2z" fill="#575965"/>
<path transform="translate(611,278)" d="m0 0 7 2v3l-4-1-4 4-4 6-9 5h-11l-3-2v-2l-2-1 1-5 2 4 1 1h7l10-4 4-3h2l2-6z" fill="#423E41"/>
<path transform="translate(1470,98)" d="m0 0 2 4-16 50-3-1 1-6 11-33 2-5v-3l2-5z" fill="#474851"/>
<path transform="translate(327,55)" d="m0 0h58v3h-55z" fill="#504C54"/>
<path transform="translate(831,48)" d="m0 0h35v1l-12 1-1 2-9 1-2 3-6 1-5-2z" fill="#58545D"/>
<path transform="translate(755,55)" d="m0 0 10 3 1 2-4 8-2 2-6-1-2-5-2-1 1-3 2-1z" fill="#5B5761"/>
<path transform="translate(637,185)" d="m0 0 2 1v4l4-2 5-1 3 3v2h2l-1 5-4-3-1 1h-5l1-2-4 4h-2l-2 5-5 11h-2l3-9 5-13h-2l2-4z" fill="#595761"/>
<path transform="translate(1130,54)" d="m0 0h38l4 1 3 6v19l-3 1v-18l-2-5-7-1h-19l-8-1h-7z" fill="#423E41"/>
<path transform="translate(1050,175)" d="m0 0h2v50l-3 7h-1v-18l1-5 1-31z" fill="#423E41"/>
<path transform="translate(1088,291)" d="m0 0h1v49l10-1v6h-2v2l-8 2-1-4z" fill="#2E72A4"/>
<path transform="translate(875,131)" d="m0 0 3 2h-2v114h-1l-1-104-1-4z" fill="#5B5761"/>
<path transform="translate(13,51)" d="m0 0h16v1l-10 1-4 1v65l1 2 5 1v2l-9 1v-73z" fill="#2D6C9B"/>
<path transform="translate(1227,337)" d="m0 0 5 2 2 3-2 8h-2v-2h-6l-6 4 1-5 2-6 1 2h2l2-5z" fill="#3172A1"/>
<path transform="translate(1164,338)" d="m0 0 1 2h3l2 5h2l-1 4-4-1-1 3 3 6v2l-3-1-7-13 1-3z" fill="#2E6A98"/>
<path transform="translate(413,142)" d="m0 0h3l3 8v3h-2l1 4h-2l-1 2-2-5h-2l-3-7-2-4 5 1z" fill="#484449"/>
<path transform="translate(326,112)" d="m0 0 4 2 6 4 1 9-2-4v-2l-10-2-5 3h-2l-2 4 1-5 4-6z" fill="#423E41"/>
<path transform="translate(1048,53)" d="m0 0 3 4 1 3-1 3 1 14 1 21h-2l-1-13-2-7z" fill="#423E41"/>
<path transform="translate(804,347)" d="m0 0 3 1 3-1 2 2-6 10-3 1-1-5-6 1 1-5 4-1z" fill="#2D6D9C"/>
<path transform="translate(351,248)" d="m0 0 2 1-9 8-7 5v-3h-10l2-2z" fill="#4AA3D8"/>
<path transform="translate(844,343)" d="m0 0 6 3v10l-1-2h-6l-2 6h-1v-10l3-6z" fill="#2D6C9B"/>
<path transform="translate(419,271)" d="m0 0 9 1 8 2 6 1v1h-16l-5 5-5 1 3-3-3-3 2-4z" fill="#423E41"/>
<path transform="translate(1014,340)" d="m0 0h5v14l-1-4-5-1-3 6h-1v-7l3-7z" fill="#2D6C9B"/>
<path transform="translate(746,346)" d="m0 0 2 2 5-1 3 3 1 9-3-3h-5l-1 7h-1z" fill="#2D6C9B"/>
<path transform="translate(856,326)" d="m0 0h32l-1 8h-3l-1-5h-24l-3-1z" fill="#25426C"/>
<path transform="translate(1389,329)" d="m0 0h1v8h-36v-2l8-1 27 1z" fill="#4D93C2"/>
<path transform="translate(750,48)" d="m0 0h33v2l-13 1-8-1-9 2h-5z" fill="#59555E"/>
<path transform="translate(470,169)" d="m0 0h2l2 9h1l1 6-1 2-5-1-3-10 1-2h3z" fill="#575661"/>
<path transform="translate(1347,332)" d="m0 0 5 2v2l2 1h-2v4h-5l-5 1v-7z" fill="#2D6C9B"/>
<path transform="translate(49,356)" d="m0 0 1 4 3-1 4 2 6 2v2l-10 2h-4l-1-7z" fill="#5B5761"/>
<path transform="translate(938,344)" d="m0 0 3 3 3 1 1-2 5 13-2 1-1-5h-2v-2l-4-1-1 6h-1l-2-7z" fill="#326F9C"/>
<path transform="translate(1223,58)" d="m0 0h7l2 1v2l2 1-12 2 1 4-3 1-1-5-1-3z" fill="#4A464C"/>
<path transform="translate(1427,334)" d="m0 0h8l-1 6-8 1-3 2-1-2v-6h3z" fill="#2D6C9B"/>
<path transform="translate(205,247)" d="m0 0 4 1-16 8-15 5h-5l1-2 22-7z" fill="#2C4A71"/>
<path transform="translate(67,249)" d="m0 0h10v1l-12 1-1 2-1-1-29-1v2l2 1-9-2v-2z" fill="#5BA2D0"/>
<path transform="translate(780,99)" d="m0 0h1l2 7-1 2-1 12-2 2h-3v-2l2-1-1-4-4-2 6-3v-8z" fill="#5A5660"/>
<path transform="translate(1158,133)" d="m0 0h6v35h-18v-1l16-1v-29l-1-3z" fill="#312F31"/>
<path transform="translate(831,48)" d="m0 0h35v1l-12 1-1 2-10 1-1-3-11-1z" fill="#525D6E"/>
<path transform="translate(765,202)" d="m0 0h1v12l1 3v7l-4-2-2-9 3-9z" fill="#5B5761"/>
<path transform="translate(865,232)" d="m0 0 4 1v8l-1 1h-6l-1-5z" fill="#5B5761"/>
<path transform="translate(961,341)" d="m0 0 2 4 1 4-3 6-2-3-1-2h-2v2l-2-1 3-7z" fill="#2D6B9A"/>
<path transform="translate(582,251)" d="m0 0 4 4 1 16-2 2-2-10-2-3v-6l-1-2z" fill="#423E41"/>
<path transform="translate(457,58)" d="m0 0 6 1v3h2v2h-13l-2-2 3-3z" fill="#4A464C"/>
<path transform="translate(295,151)" d="m0 0h2l2 3 2 1-1 3h-2l-2 5-5-4v-2h2l1-5z" fill="#413D40"/>
<path transform="translate(1031,326)" d="m0 0h25l-1 3-27-1z" fill="#26456E"/>
<path transform="translate(767,209)" d="m0 0 10 2 2 4-4 1-8-2-1-2z" fill="#5B5761"/>
<path transform="translate(1470,98)" d="m0 0 2 4-5 16-2-2 1-8 2-2-1-2 2-5z" fill="#484D59"/>
<path transform="translate(1087,177)" d="m0 0h2l1 3v9l-2 2-2 4v-15z" fill="#423E41"/>
<path transform="translate(55,349)" d="m0 0 3 2v6l-7 2v-6z" fill="#5B5761"/>
<path transform="translate(342,257)" d="m0 0 2 1-10 10-7 8-3 2 1-4z" fill="#2D6792"/>
<path transform="translate(89,219)" d="m0 0h1v18l-5 1h-13v-1l11-1 4-4 1 1z" fill="#575865"/>
<path transform="translate(774,141)" d="m0 0h3v7h2l2 7-6-1-2-7 1-2z" fill="#5B5761"/>
<path transform="translate(1458,136)" d="m0 0h2l-2 10-2 6-3-1 1-6z" fill="#4A4B55"/>
<path transform="translate(633,108)" d="m0 0h1l-1 8-5 15-2 1 2-10z" fill="#2D6D9C"/>
<path transform="translate(1430,230)" d="m0 0h2l-2 9-2 7-2-3-1-4z" fill="#45444A"/>
<path transform="translate(229,229)" d="m0 0h3l-2 4-7 6h-1v-5z" fill="#264871"/>
<path transform="translate(482,359)" d="m0 0 4 1 7 4 1-2v3h-8v-1l-7-1 1-3z" fill="#5B5D69"/>
<path transform="translate(1089,102)" d="m0 0h1v9h-2l-1 5-1-4v-8z" fill="#423E41"/>
<path transform="translate(831,49)" d="m0 0h16l-1 2h-3l-1 2-4-1-3 1v-2l-4 1z" fill="#4A464C"/>
<path transform="translate(1337,164)" d="m0 0h2v2l-10 7h-3l2-5 6-2z" fill="#37373B"/>
<path transform="translate(1142,138)" d="m0 0 12 1 2 1v2h2v6l-2-2-1-3-6-2-8-1z" fill="#423E41"/>
<path transform="translate(80,226)" d="m0 0 3 1 1 6h-7l-1-4 4-1z" fill="#5B5761"/>
<path transform="translate(192,201)" d="m0 0 1 3-3 1v5l-3 1-1 3h-2l-1 3-1-2 7-11z" fill="#2B4A71"/>
<path transform="translate(1556,334)" d="m0 0 5 2 4 5-1 4v-2l-3-1-3-4-3-2z" fill="#3171A0"/>
<path transform="translate(43,174)" d="m0 0 1 4-2 4-6-2v-4l5 1z" fill="#423E41"/>
<path transform="translate(776,164)" d="m0 0 1 2h2l1 3-2 1 1 4-1 3-3-1 1-3-2-1 1-5-1-2z" fill="#5B5761"/>
<path transform="translate(447,270)" d="m0 0 5 1 3 3-13 1z" fill="#423E41"/>
<path transform="translate(1047,206)" d="m0 0 3 3-1 5-1 18h-1z" fill="#4A464C"/>
<path transform="translate(750,48)" d="m0 0h12v2l-9 2h-5z" fill="#4B647D"/>
<path transform="translate(958,335)" d="m0 0h2l-3 12-3 6-1-4z" fill="#325274"/>
<path transform="translate(215,239)" d="m0 0 5 1-5 5-5 1z" fill="#284871"/>
<path transform="translate(47,163)" d="m0 0 4 1 4 3-9 2-2 1 1-4z" fill="#444044"/>
<path transform="translate(314,128)" d="m0 0 1 2-5 11-3-1 2-5z" fill="#423E41"/>
<path transform="translate(176,125)" d="m0 0 4 2 6 5v2h2l2 5-3-1-6-8z" fill="#2D618A"/>
<path transform="translate(509,196)" d="m0 0 2 4v7h-5z" fill="#5B5761"/>
<path transform="translate(39,328)" d="m0 0h2v5l-2 3h-2l-1 2v-6l1-2h2z" fill="#423E41"/>
<path transform="translate(875,131)" d="m0 0 3 2h-2v14l-2-4-1-4z" fill="#595863"/>
<path transform="translate(385,129)" d="m0 0h7l2 3h-14v-2z" fill="#4A464C"/>
<path transform="translate(501,268)" d="m0 0h4l2 3-1 6h-2v-5l-3-1z" fill="#423E41"/>
<path transform="translate(417,150)" d="m0 0h2v3h-2l1 4h-2l-1 2-2-5 4-2z" fill="#414046"/>
<path transform="translate(1461,127)" d="m0 0h2l-2 9h-3l2-8z" fill="#4B474D"/>
<path transform="translate(13,119)" d="m0 0h2l1 2 5 1v2l-9 1z" fill="#3374A3"/>
<path transform="translate(1470,98)" d="m0 0 2 4-2 7-3-4 2-6z" fill="#494951"/>
</svg>
