<?xml version="1.0" encoding="UTF-8" standalone="no"?>
<svg
   xmlns:dc="http://purl.org/dc/elements/1.1/"
   xmlns:cc="http://creativecommons.org/ns#"
   xmlns:rdf="http://www.w3.org/1999/02/22-rdf-syntax-ns#"
   xmlns:svg="http://www.w3.org/2000/svg"
   xmlns="http://www.w3.org/2000/svg"
   viewBox="0 0 793.70081 1122.5197"
   height="1122.5197"
   width="793.70081"
   xml:space="preserve"
   id="svg2"
   version="1.1"><metadata
     id="metadata8"><rdf:RDF><cc:Work
         rdf:about=""><dc:format>image/svg+xml</dc:format><dc:type
           rdf:resource="http://purl.org/dc/dcmitype/StillImage" /></cc:Work></rdf:RDF></metadata><defs
     id="defs6"><clipPath
       id="clipPath18"
       clipPathUnits="userSpaceOnUse"><path
         style="clip-rule:evenodd"
         id="path16"
         d="m 196.9404,459.3713 h -14.6886 l -18.2582,-51.586 c 5.3093,4.8827 10.5545,6.4321 16.685,9.3512 v 0 l 5.5979,16.8784 c 1.5247,4.3523 3.2649,11.969 3.2649,11.969 v 0 h 0.218 c 0,0 1.6316,-7.6167 3.0472,-11.969 v 0 l 4.2747,-12.8849 c 4.2653,1.1338 8.4495,1.9494 12.4013,2.533 z" /></clipPath><linearGradient
       id="linearGradient24"
       spreadMethod="pad"
       gradientUnits="userSpaceOnUse"
       y2="459.88"
       x2="194.47"
       y1="404.20999"
       x1="184.52"><stop
         id="stop20"
         offset="0"
         style="stop-opacity:1;stop-color:#5c5660" /><stop
         id="stop22"
         offset="1"
         style="stop-opacity:1;stop-color:#292826" /></linearGradient><clipPath
       id="clipPath34"
       clipPathUnits="userSpaceOnUse"><path
         style="clip-rule:evenodd"
         id="path32"
         d="m 194.3711,455.7427 h -9.5556 l -14.063,-39.9441 c 2.2201,1.4077 4.5417,2.7204 6.9659,3.9302 v 0 l 5.1369,15.4848 c 1.4355,4.1086 3.1337,11.505 3.1471,11.5801 v 0 c 0.3801,1.6509 1.8496,2.818 3.539,2.818 v 0 h 0.218 c 1.7124,0 3.1898,-1.1926 3.5476,-2.8687 v 0 c 0.0136,-0.072 1.6089,-7.4852 2.9437,-11.588 v 0 l 3.4813,-10.0661 c 1.6897,0.3934 3.41,0.7537 5.1585,1.0751 z" /></clipPath><linearGradient
       id="linearGradient44"
       spreadMethod="pad"
       gradientUnits="userSpaceOnUse"
       y2="455.92001"
       x2="193.95"
       y1="413.14001"
       x1="186.21001"><stop
         id="stop36"
         offset="0"
         style="stop-opacity:1;stop-color:#5c5660" /><stop
         id="stop38"
         offset="0.36"
         style="stop-opacity:1;stop-color:#5c5660" /><stop
         id="stop40"
         offset="0.67"
         style="stop-opacity:1;stop-color:#423e41" /><stop
         id="stop42"
         offset="1"
         style="stop-opacity:1;stop-color:#292826" /></linearGradient><clipPath
       id="clipPath54"
       clipPathUnits="userSpaceOnUse"><path
         style="clip-rule:evenodd"
         id="path52"
         d="m 200.1059,412.3687 9.568,-30.2661 h 14.474 l -12.6488,36.0932 c -4.1329,-1.4598 -7.7261,-3.7544 -11.3932,-5.8271" /></clipPath><linearGradient
       id="linearGradient60"
       spreadMethod="pad"
       gradientUnits="userSpaceOnUse"
       y2="417.54999"
       x2="215.52"
       y1="382.07001"
       x1="209.57001"><stop
         id="stop56"
         offset="0"
         style="stop-opacity:1;stop-color:#5c5660" /><stop
         id="stop58"
         offset="1"
         style="stop-opacity:1;stop-color:#292826" /></linearGradient><clipPath
       id="clipPath70"
       clipPathUnits="userSpaceOnUse"><path
         style="clip-rule:evenodd"
         id="path68"
         d="m 204.2189,410.6546 8.1003,-24.9265 h 6.7062 l -9.6562,27.2778 c -1.7649,-0.7228 -3.4852,-1.5106 -5.1503,-2.3513" /></clipPath><linearGradient
       id="linearGradient80"
       spreadMethod="pad"
       gradientUnits="userSpaceOnUse"
       y2="412.20999"
       x2="214.05"
       y1="386.16"
       x1="209.57001"><stop
         id="stop72"
         offset="0"
         style="stop-opacity:1;stop-color:#5c5660" /><stop
         id="stop74"
         offset="0.36"
         style="stop-opacity:1;stop-color:#5c5660" /><stop
         id="stop76"
         offset="0.67"
         style="stop-opacity:1;stop-color:#423e41" /><stop
         id="stop78"
         offset="1"
         style="stop-opacity:1;stop-color:#292826" /></linearGradient><clipPath
       id="clipPath90"
       clipPathUnits="userSpaceOnUse"><path
         style="clip-rule:evenodd"
         id="path88"
         d="m 233.6179,382.1014 h 14.6888 l 18.2583,51.5863 c -5.3096,-4.8826 -10.5548,-6.4318 -16.6853,-9.3509 v 0 l -5.5973,-16.8786 c -1.5256,-4.3517 -3.2658,-11.9684 -3.2658,-11.9684 v 0 h -0.2177 c 0,0 -1.6319,7.6167 -3.047,11.9684 v 0 l -4.1697,12.9149 -0.0142,-0.004 -12.6836,39.0019 h -14.4743 l 15.6084,-43.9991 0.0213,0.002 11.5781,-33.2723 z" /></clipPath><linearGradient
       id="linearGradient96"
       spreadMethod="pad"
       gradientUnits="userSpaceOnUse"
       y2="381.60001"
       x2="236.16"
       y1="437.26001"
       x1="246.08"><stop
         id="stop92"
         offset="0"
         style="stop-opacity:1;stop-color:#5c5660" /><stop
         id="stop94"
         offset="1"
         style="stop-opacity:1;stop-color:#292826" /></linearGradient><clipPath
       id="clipPath106"
       clipPathUnits="userSpaceOnUse"><path
         style="clip-rule:evenodd"
         id="path104"
         d="m 236.1869,385.7309 h 9.5553 l 14.0636,39.9436 c -2.2198,-1.4071 -4.5411,-2.7199 -6.9659,-3.9297 v 0 L 247.7032,406.26 c -1.4354,-4.1088 -3.1337,-11.5053 -3.1473,-11.5804 v 0 c -0.3801,-1.6509 -1.8496,-2.8176 -3.5393,-2.8176 v 0 h -0.2177 c -1.7124,0 -3.1898,1.192 -3.5478,2.8681 v 0 c -0.0137,0.0717 -1.6084,7.4849 -2.9438,11.5883 v 0 c -5.4451,16.4968 -10.7686,32.8895 -16.0685,49.4271 h -6.7056 c 8.2193,-23.3441 16.4384,-46.6594 24.6537,-70.0146" /></clipPath><linearGradient
       id="linearGradient116"
       spreadMethod="pad"
       gradientUnits="userSpaceOnUse"
       y2="385.51999"
       x2="232.92999"
       y1="436.01001"
       x1="241.89"><stop
         id="stop108"
         offset="0"
         style="stop-opacity:1;stop-color:#5c5660" /><stop
         id="stop110"
         offset="0.36"
         style="stop-opacity:1;stop-color:#5c5660" /><stop
         id="stop112"
         offset="0.67"
         style="stop-opacity:1;stop-color:#423e41" /><stop
         id="stop114"
         offset="1"
         style="stop-opacity:1;stop-color:#292826" /></linearGradient><clipPath
       id="clipPath126"
       clipPathUnits="userSpaceOnUse"><path
         style="clip-rule:evenodd"
         id="path124"
         d="m 109.7328,380.6031 h 14.0375 v 23.2829 c -5.7901,0.6619 -10.7946,1.8042 -14.0375,2.6705 z" /></clipPath><linearGradient
       id="linearGradient132"
       spreadMethod="pad"
       gradientUnits="userSpaceOnUse"
       y2="404.95999"
       x2="118.76"
       y1="379.79999"
       x1="114.32"><stop
         id="stop128"
         offset="0"
         style="stop-opacity:1;stop-color:#5c5660" /><stop
         id="stop130"
         offset="1"
         style="stop-opacity:1;stop-color:#292826" /></linearGradient><clipPath
       id="clipPath142"
       clipPathUnits="userSpaceOnUse"><path
         style="clip-rule:evenodd"
         id="path140"
         d="m 120.1425,384.2308 v 16.4739 c -2.486,0.3687 -4.7764,0.8076 -6.7845,1.243 v -17.7169 z" /></clipPath><linearGradient
       id="linearGradient152"
       spreadMethod="pad"
       gradientUnits="userSpaceOnUse"
       y2="401.10001"
       x2="118.16"
       y1="383.92001"
       x1="115.13"><stop
         id="stop144"
         offset="0"
         style="stop-opacity:1;stop-color:#5c5660" /><stop
         id="stop146"
         offset="0.36"
         style="stop-opacity:1;stop-color:#5c5660" /><stop
         id="stop148"
         offset="0.67"
         style="stop-opacity:1;stop-color:#423e41" /><stop
         id="stop150"
         offset="1"
         style="stop-opacity:1;stop-color:#292826" /></linearGradient><clipPath
       id="clipPath162"
       clipPathUnits="userSpaceOnUse"><path
         style="clip-rule:evenodd"
         id="path160"
         d="m 109.7328,439.9087 v -26.5544 c 5.2594,0.0453 9.9323,0.2795 14.0375,0.7038 v 0 28.1965 c -5.3759,-0.4773 -10.5072,-1.5106 -14.0375,-2.3459" /></clipPath><linearGradient
       id="linearGradient168"
       spreadMethod="pad"
       gradientUnits="userSpaceOnUse"
       y2="442.98999"
       x2="119.57"
       y1="412.57001"
       x1="114.21"><stop
         id="stop164"
         offset="0"
         style="stop-opacity:1;stop-color:#5c5660" /><stop
         id="stop166"
         offset="1"
         style="stop-opacity:1;stop-color:#292826" /></linearGradient><clipPath
       id="clipPath178"
       clipPathUnits="userSpaceOnUse"><path
         style="clip-rule:evenodd"
         id="path176"
         d="m 120.1425,417.3795 v 20.8088 c -2.4662,-0.3435 -4.7877,-0.7713 -6.7845,-1.1869 v 0 -19.951 c 2.399,0.064 4.6642,0.1757 6.7845,0.3291" /></clipPath><linearGradient
       id="linearGradient188"
       spreadMethod="pad"
       gradientUnits="userSpaceOnUse"
       y2="438.44"
       x2="118.73"
       y1="416.76999"
       x1="114.91"><stop
         id="stop180"
         offset="0"
         style="stop-opacity:1;stop-color:#5c5660" /><stop
         id="stop182"
         offset="0.36"
         style="stop-opacity:1;stop-color:#5c5660" /><stop
         id="stop184"
         offset="0.67"
         style="stop-opacity:1;stop-color:#423e41" /><stop
         id="stop186"
         offset="1"
         style="stop-opacity:1;stop-color:#292826" /></linearGradient><clipPath
       id="clipPath198"
       clipPathUnits="userSpaceOnUse"><path
         style="clip-rule:evenodd"
         id="path196"
         d="m 110.6688,453.6278 c 6.8616,0.5924 13.7778,1.0735 19.677,1.0735 v 0 c 7.5308,0 13.2052,-0.7824 17.8617,-2.4611 v 0 c 6.8238,-2.4996 12.7593,-10.3119 14.4158,-18.9958 v 0 c 0.8204,-4.3098 1.1895,-12.4407 -5.5703,-18.4592 v 0 c -2.9605,-2.6345 -6.7703,-4.5088 -11.3817,-5.6035 v 0 c 2.372,1.2566 4.3101,2.7314 5.8655,4.4438 v 0 c 3.7539,4.1366 5.2455,9.6361 4.553,16.8092 v 0 c -0.5947,6.1724 -4.5947,16.5268 -24.6909,16.5268 v 0 c -7.6986,0 -15.6133,-1.4836 -20.7301,-2.673 v 0 z" /></clipPath><linearGradient
       id="linearGradient208"
       spreadMethod="pad"
       gradientUnits="userSpaceOnUse"
       y2="402.82999"
       x2="158.53"
       y1="460.76001"
       x1="106.71"><stop
         id="stop200"
         offset="0"
         style="stop-opacity:1;stop-color:#317aa8" /><stop
         id="stop202"
         offset="0.46"
         style="stop-opacity:1;stop-color:#317aa8" /><stop
         id="stop204"
         offset="0.73"
         style="stop-opacity:1;stop-color:#2c5370" /><stop
         id="stop206"
         offset="1"
         style="stop-opacity:1;stop-color:#2a3b5c" /></linearGradient><clipPath
       id="clipPath218"
       clipPathUnits="userSpaceOnUse"><path
         style="clip-rule:evenodd"
         id="path216"
         d="m 104.1769,460.4743 v -18.904 c 0,0 43.3355,13.1981 45.4439,-8.6641 v 0 c 1.3598,-14.1188 -6.0327,-22.3364 -42.8661,-22.1519 v 0 c 0,0 33.9537,-11.4996 51.0143,3.6839 v 0 c 15.099,13.4433 5.0295,39.1652 -10.2566,44.7546 v 0 c -5.4354,1.9632 -11.6419,2.7204 -19.3255,2.7204 -6.715,0 -14.5601,-0.5783 -24.01,-1.4389" /></clipPath><linearGradient
       id="linearGradient228"
       spreadMethod="pad"
       gradientUnits="userSpaceOnUse"
       y2="398.85999"
       x2="159.95"
       y1="469.28"
       x1="99.559998"><stop
         id="stop220"
         offset="0"
         style="stop-opacity:1;stop-color:#317aa8" /><stop
         id="stop222"
         offset="0.46"
         style="stop-opacity:1;stop-color:#317aa8" /><stop
         id="stop224"
         offset="0.73"
         style="stop-opacity:1;stop-color:#2c5370" /><stop
         id="stop226"
         offset="1"
         style="stop-opacity:1;stop-color:#2a3b5c" /></linearGradient><clipPath
       id="clipPath238"
       clipPathUnits="userSpaceOnUse"><path
         style="clip-rule:evenodd"
         id="path236"
         d="m 210.3239,421.1728 c -21.0299,-3.0076 -49.227,-11.2584 -60.4001,-40.57 h 20.0407 c 5.8578,15.2008 17.6043,30.8307 40.3594,40.57" /></clipPath><linearGradient
       id="linearGradient248"
       spreadMethod="pad"
       gradientUnits="userSpaceOnUse"
       y2="400.89001"
       x2="210.32001"
       y1="400.89001"
       x1="149.92"><stop
         id="stop240"
         offset="0"
         style="stop-opacity:1;stop-color:#317aa8" /><stop
         id="stop242"
         offset="0.45"
         style="stop-opacity:1;stop-color:#317aa8" /><stop
         id="stop244"
         offset="0.73"
         style="stop-opacity:1;stop-color:#2c5370" /><stop
         id="stop246"
         offset="1"
         style="stop-opacity:1;stop-color:#2a3b5c" /></linearGradient><clipPath
       id="clipPath258"
       clipPathUnits="userSpaceOnUse"><path
         style="clip-rule:evenodd"
         id="path256"
         d="m 157.6134,383.0624 h 10.4241 c 1.3672,3.9246 4.5267,11.192 10.9814,18.6772 v 0 c 2.9461,3.4163 6.8063,7.1147 11.7865,10.5755 -13.5051,-4.6905 -26.6627,-13.3657 -33.192,-29.2527 z" /></clipPath><linearGradient
       id="linearGradient264"
       spreadMethod="pad"
       gradientUnits="userSpaceOnUse"
       y2="397.69"
       x2="192.33"
       y1="397.69"
       x1="156.09"><stop
         id="stop260"
         offset="0"
         style="stop-opacity:1;stop-color:#9bd0f2" /><stop
         id="stop262"
         offset="1"
         style="stop-opacity:1;stop-color:#46a2da" /></linearGradient><clipPath
       id="clipPath274"
       clipPathUnits="userSpaceOnUse"><path
         style="clip-rule:evenodd"
         id="path272"
         d="m 286.34,411.4128 h 11.5399 v 49.8277 H 286.34 Z m 157.0553,0 h 12.238 l 3.8024,11.1606 h 15.5523 l 3.869,-11.1606 h 12.242 l -19.137,49.8277 h -9.3594 z m 23.851,37.6141 5.7722,-18.5242 H 461.2683 Z M 400.61,411.4128 h 11.5398 v 16.0696 h 7.5308 l 10.0622,-16.0696 h 13.0169 l -11.4689,18.5247 c 1.2668,0.7058 2.3995,1.5579 3.4123,2.5637 v 0 c 1.0089,1.0054 1.8638,2.1415 2.5696,3.4055 v 0 c 0.7022,1.264 1.2413,2.605 1.6152,4.0326 v 0 c 0.3764,1.4295 0.5647,2.9146 0.5647,4.4555 v 0 c 0,2.0619 -0.4113,4.096 -1.2286,6.1103 v 0 c -0.8271,2.0075 -1.9638,3.8115 -3.4163,5.4012 v 0 c -1.4522,1.5891 -3.1793,2.8757 -5.1707,3.8591 v 0 c -1.9956,0.9827 -4.1626,1.4751 -6.5092,1.4751 v 0 H 400.61 Z m 11.5398,39.7213 h 10.2056 c 1.3116,0 2.5313,-0.6074 3.6581,-1.826 v 0 c 1.1239,-1.2138 1.6889,-2.8514 1.6889,-4.9133 v 0 c 0,-2.0112 -0.4944,-3.6579 -1.4817,-4.9479 v 0 c -0.9827,-1.2861 -2.1543,-1.9273 -3.5144,-1.9273 v 0 h -10.5565 z m -51.2946,-39.7213 h 11.5433 v 19.6515 h 18.4342 v 9.3305 h -18.4342 v 10.7393 h 22.3735 v 10.1064 h -33.9168 z m -53.4056,0 h 11.5438 v 28.4936 l 23.0089,-28.4936 h 9.2891 v 49.8277 h -11.5432 v -29.266 l -23.2895,29.266 h -9.0091 z" /></clipPath><linearGradient
       id="linearGradient280"
       spreadMethod="pad"
       gradientUnits="userSpaceOnUse"
       y2="436.32999"
       x2="491.14999"
       y1="436.32999"
       x1="286.39001"><stop
         id="stop276"
         offset="0"
         style="stop-opacity:1;stop-color:#5c5660" /><stop
         id="stop278"
         offset="1"
         style="stop-opacity:1;stop-color:#292826" /></linearGradient><clipPath
       id="clipPath290"
       clipPathUnits="userSpaceOnUse"><path
         style="clip-rule:evenodd"
         id="path288"
         d="m 286.3397,380.1818 h 7.3404 0.072 c 1.5052,0.008 2.8669,0.2534 4.0895,0.7402 v 0 c 1.2461,0.494 2.3015,1.1894 3.1765,2.0888 v 0 c 0.8708,0.8994 1.5438,1.9865 2.022,3.2539 v 0 c 0.4742,1.2685 0.7149,2.6872 0.7149,4.2542 v 0 c 0,1.4131 -0.2152,2.7425 -0.6429,3.9943 v 0 c -0.4267,1.2487 -1.0608,2.338 -1.9072,3.2675 v 0 c -0.8433,0.9304 -1.8907,1.6651 -3.1447,2.2065 v 0 c -1.2518,0.5394 -2.7128,0.8133 -4.3801,0.8133 v 0 h -7.3404 z m 3.263,17.7446 h 4.0774 c 1.0641,0 2.0165,-0.1845 2.8519,-0.5533 v 0 c 0.8354,-0.366 1.5446,-0.8742 2.1257,-1.5219 v 0 c 0.5805,-0.6509 1.0222,-1.4329 1.3263,-2.338 v 0 c 0.2994,-0.9105 0.4496,-1.9106 0.4496,-2.9943 v 0 c 0,-1.0641 -0.1448,-2.0531 -0.4385,-2.9636 v 0 c -0.2897,-0.9074 -0.7206,-1.6982 -1.2929,-2.3627 v 0 c -0.5726,-0.6704 -1.2818,-1.1931 -2.1282,-1.5698 v 0 c -0.8439,-0.3801 -1.81,-0.5669 -2.8939,-0.5669 v 0 h -4.0774 z" /></clipPath><linearGradient
       id="linearGradient300"
       spreadMethod="pad"
       gradientUnits="userSpaceOnUse"
       y2="395.14999"
       x2="294.84"
       y1="372.98001"
       x1="295.31"><stop
         id="stop292"
         offset="0"
         style="stop-opacity:1;stop-color:#317aa8" /><stop
         id="stop294"
         offset="0.46"
         style="stop-opacity:1;stop-color:#317aa8" /><stop
         id="stop296"
         offset="0.73"
         style="stop-opacity:1;stop-color:#2c5370" /><stop
         id="stop298"
         offset="1"
         style="stop-opacity:1;stop-color:#2a3b5c" /></linearGradient><clipPath
       id="clipPath310"
       clipPathUnits="userSpaceOnUse"><path
         style="clip-rule:evenodd"
         id="path308"
         d="m 309.5198,380.1818 h 14.1809 v 2.8741 h -10.9182 v 6.3039 h 9.231 v 2.6981 h -9.231 v 5.8685 h 10.6585 v 2.8741 h -13.9212 z" /></clipPath><linearGradient
       id="linearGradient320"
       spreadMethod="pad"
       gradientUnits="userSpaceOnUse"
       y2="395.60001"
       x2="316.37"
       y1="373.44"
       x1="316.84"><stop
         id="stop312"
         offset="0"
         style="stop-opacity:1;stop-color:#317aa8" /><stop
         id="stop314"
         offset="0.46"
         style="stop-opacity:1;stop-color:#317aa8" /><stop
         id="stop316"
         offset="0.73"
         style="stop-opacity:1;stop-color:#2c5370" /><stop
         id="stop318"
         offset="1"
         style="stop-opacity:1;stop-color:#2a3b5c" /></linearGradient><clipPath
       id="clipPath330"
       clipPathUnits="userSpaceOnUse"><path
         style="clip-rule:evenodd"
         id="path328"
         d="m 335.5824,380.1818 h 2.7958 l 8.2428,20.6187 h -3.4387 l -6.2008,-16.5237 -6.262,16.5237 h -3.4662 z" /></clipPath><linearGradient
       id="linearGradient340"
       spreadMethod="pad"
       gradientUnits="userSpaceOnUse"
       y2="396.04001"
       x2="337.04001"
       y1="373.88"
       x1="337.51001"><stop
         id="stop332"
         offset="0"
         style="stop-opacity:1;stop-color:#317aa8" /><stop
         id="stop334"
         offset="0.46"
         style="stop-opacity:1;stop-color:#317aa8" /><stop
         id="stop336"
         offset="0.73"
         style="stop-opacity:1;stop-color:#2c5370" /><stop
         id="stop338"
         offset="1"
         style="stop-opacity:1;stop-color:#2a3b5c" /></linearGradient><clipPath
       id="clipPath350"
       clipPathUnits="userSpaceOnUse"><path
         style="clip-rule:evenodd"
         id="path348"
         d="m 351.3946,380.1818 h 14.1831 v 2.8741 h -10.9213 v 6.3039 h 9.231 v 2.6981 h -9.231 v 5.8685 h 10.6586 v 2.8741 h -13.9204 z" /></clipPath><linearGradient
       id="linearGradient360"
       spreadMethod="pad"
       gradientUnits="userSpaceOnUse"
       y2="396.48999"
       x2="358.23001"
       y1="374.32999"
       x1="358.70001"><stop
         id="stop352"
         offset="0"
         style="stop-opacity:1;stop-color:#317aa8" /><stop
         id="stop354"
         offset="0.46"
         style="stop-opacity:1;stop-color:#317aa8" /><stop
         id="stop356"
         offset="0.73"
         style="stop-opacity:1;stop-color:#2c5370" /><stop
         id="stop358"
         offset="1"
         style="stop-opacity:1;stop-color:#2a3b5c" /></linearGradient><clipPath
       id="clipPath370"
       clipPathUnits="userSpaceOnUse"><path
         style="clip-rule:evenodd"
         id="path368"
         d="m 371.3426,380.1818 h 14.3566 v 2.8741 h -11.0948 v 17.7446 h -3.2618 z" /></clipPath><linearGradient
       id="linearGradient380"
       spreadMethod="pad"
       gradientUnits="userSpaceOnUse"
       y2="396.92001"
       x2="378.20001"
       y1="374.75"
       x1="378.67001"><stop
         id="stop372"
         offset="0"
         style="stop-opacity:1;stop-color:#317aa8" /><stop
         id="stop374"
         offset="0.46"
         style="stop-opacity:1;stop-color:#317aa8" /><stop
         id="stop376"
         offset="0.73"
         style="stop-opacity:1;stop-color:#2c5370" /><stop
         id="stop378"
         offset="1"
         style="stop-opacity:1;stop-color:#2a3b5c" /></linearGradient><clipPath
       id="clipPath390"
       clipPathUnits="userSpaceOnUse"><path
         style="clip-rule:evenodd"
         id="path388"
         d="m 398.4644,400.9484 h -0.068 -0.0663 c -1.3935,-0.008 -2.6785,-0.2967 -3.8662,-0.8574 -1.2042,-0.5724 -2.2399,-1.3437 -3.1173,-2.3103 v 0 c -0.8716,-0.9691 -1.5556,-2.0806 -2.0497,-3.3372 v 0 c -0.487,-1.2399 -0.7356,-2.5376 -0.7435,-3.8883 v -0.0641 -0.0617 c 0.007,-1.2969 0.2392,-2.5645 0.6984,-3.8013 v 0 c 0.4641,-1.2594 1.1313,-2.3769 1.9945,-3.3545 v 0 c 0.866,-0.9777 1.8938,-1.7623 3.0861,-2.3516 v 0 c 1.1925,-0.5897 2.5194,-0.8859 3.9747,-0.8859 v 0 c 1.4188,0 2.7235,0.2826 3.9189,0.8575 v 0 c 1.1948,0.5701 2.2258,1.3326 3.0997,2.2938 v 0 c 0.8751,0.9547 1.5591,2.0665 2.0563,3.3236 v 0 c 0.494,1.2597 0.7404,2.5779 0.7404,3.9493 v 0 c 0,1.296 -0.2353,2.5724 -0.6959,3.8211 v 0 c -0.4689,1.2483 -1.1285,2.3655 -1.9803,3.3545 v 0 c -0.8575,0.9856 -1.8828,1.7847 -3.0751,2.3933 v 0 c -1.1735,0.6026 -2.4783,0.9099 -3.9067,0.9192 z m -2.8051,-17.3565 c -0.7963,0.4187 -1.4772,0.9723 -2.0387,1.6705 v 0 c -0.5644,0.6984 -0.9944,1.4995 -1.296,2.4134 v 0 c -0.3016,0.9073 -0.453,1.8462 -0.453,2.8153 v 0 c 0,0.9304 0.1483,1.8431 0.4388,2.7457 v 0 c 0.2906,0.8994 0.7124,1.6951 1.2682,2.3936 v 0 c 0.5528,0.6981 1.2311,1.2651 2.0356,1.7007 v 0 c 0.8076,0.4329 1.7127,0.654 2.7238,0.654 v 0 c 0.9689,0 1.8542,-0.21 2.6507,-0.6256 v 0 c 0.7957,-0.4164 1.4743,-0.9697 2.0387,-1.6563 v 0 c 0.5612,-0.6848 1,-1.4805 1.3104,-2.38 v 0 c 0.3096,-0.8994 0.4663,-1.843 0.4663,-2.8321 v 0 c 0,-0.9303 -0.1482,-1.8408 -0.4388,-2.7314 v 0 c -0.2905,-0.8915 -0.7123,-1.6929 -1.2651,-2.4109 v 0 c -0.5559,-0.7149 -1.2342,-1.2906 -2.0387,-1.726 v 0 c -0.8075,-0.4354 -1.7126,-0.6534 -2.7235,-0.6534 v 0 c -0.989,0 -1.8853,0.2067 -2.6787,0.6225 z" /></clipPath><linearGradient
       id="linearGradient400"
       spreadMethod="pad"
       gradientUnits="userSpaceOnUse"
       y2="397.34"
       x2="398.19"
       y1="375.17001"
       x1="398.66"><stop
         id="stop392"
         offset="0"
         style="stop-opacity:1;stop-color:#317aa8" /><stop
         id="stop394"
         offset="0.46"
         style="stop-opacity:1;stop-color:#317aa8" /><stop
         id="stop396"
         offset="0.73"
         style="stop-opacity:1;stop-color:#2c5370" /><stop
         id="stop398"
         offset="1"
         style="stop-opacity:1;stop-color:#2a3b5c" /></linearGradient><clipPath
       id="clipPath410"
       clipPathUnits="userSpaceOnUse"><path
         style="clip-rule:evenodd"
         id="path408"
         d="m 413.8007,380.1818 h 3.2619 v 7.1725 h 5.589 c 0.9357,0 1.7822,0.1868 2.5504,0.567 v 0 c 0.7679,0.3744 1.4218,0.8801 1.9632,1.508 v 0 c 0.5448,0.6287 0.9669,1.3436 1.2685,2.1481 v 0 c 0.2968,0.7948 0.4473,1.616 0.4522,2.4758 v 0.0411 0.0388 c -0.005,0.8155 -0.1664,1.6214 -0.4808,2.4134 v 0 c -0.3206,0.8019 -0.7622,1.5194 -1.3238,2.1478 v 0 c -0.5666,0.6288 -1.2399,1.137 -2.0245,1.5251 v 0 c -0.7852,0.3855 -1.6452,0.5811 -2.5778,0.5811 v 0 h -8.6783 z m 3.2619,17.7446 h 5.212 c 0.4278,0 0.8411,-0.0927 1.2376,-0.2764 v 0 c 0.3991,-0.1845 0.7538,-0.4441 1.0641,-0.7854 v 0 c 0.3096,-0.3379 0.5528,-0.737 0.7291,-1.2033 v 0 c 0.176,-0.4641 0.26,-0.989 0.26,-1.567 v 0 c 0,-0.5644 -0.0786,-1.0783 -0.2353,-1.5424 v 0 c -0.1505,-0.4631 -0.3657,-0.8708 -0.639,-1.22 v 0 c -0.2684,-0.3492 -0.5952,-0.6199 -0.9722,-0.813 v 0 c -0.3802,-0.1924 -0.802,-0.2905 -1.2708,-0.2905 v 0 h -5.3855 z" /></clipPath><linearGradient
       id="linearGradient420"
       spreadMethod="pad"
       gradientUnits="userSpaceOnUse"
       y2="397.82999"
       x2="421.12"
       y1="375.66"
       x1="421.59"><stop
         id="stop412"
         offset="0"
         style="stop-opacity:1;stop-color:#317aa8" /><stop
         id="stop414"
         offset="0.46"
         style="stop-opacity:1;stop-color:#317aa8" /><stop
         id="stop416"
         offset="0.73"
         style="stop-opacity:1;stop-color:#2c5370" /><stop
         id="stop418"
         offset="1"
         style="stop-opacity:1;stop-color:#2a3b5c" /></linearGradient><clipPath
       id="clipPath430"
       clipPathUnits="userSpaceOnUse"><path
         style="clip-rule:evenodd"
         id="path428"
         d="m 434.154,380.1818 h 14.1804 v 2.8741 h -10.9151 v 6.3039 h 9.2279 v 2.6981 h -9.2279 v 5.8685 h 10.6554 v 2.8741 H 434.154 Z" /></clipPath><linearGradient
       id="linearGradient440"
       spreadMethod="pad"
       gradientUnits="userSpaceOnUse"
       y2="398.25"
       x2="440.95001"
       y1="376.07999"
       x1="441.42001"><stop
         id="stop432"
         offset="0"
         style="stop-opacity:1;stop-color:#317aa8" /><stop
         id="stop434"
         offset="0.46"
         style="stop-opacity:1;stop-color:#317aa8" /><stop
         id="stop436"
         offset="0.73"
         style="stop-opacity:1;stop-color:#2c5370" /><stop
         id="stop438"
         offset="1"
         style="stop-opacity:1;stop-color:#2a3b5c" /></linearGradient><clipPath
       id="clipPath450"
       clipPathUnits="userSpaceOnUse"><path
         style="clip-rule:evenodd"
         id="path448"
         d="m 454.102,380.1818 h 3.2621 v 7.1725 h 4.7767 l 4.5445,-7.1725 h 3.6975 l -4.9215,7.8398 c 0.6009,0.1933 1.1568,0.4893 1.6594,0.8884 v 0 c 0.506,0.3943 0.9303,0.8631 1.2796,1.4077 v 0 c 0.3492,0.5391 0.6224,1.1316 0.8177,1.7711 v 0 c 0.1934,0.6397 0.2909,1.3042 0.2909,2.0055 v 0 c 0,0.8291 -0.1593,1.6477 -0.4808,2.4522 v 0 c -0.3206,0.8019 -0.7625,1.5194 -1.326,2.1478 v 0 c -0.5616,0.6288 -1.2376,1.137 -2.0223,1.5251 v 0 c -0.7854,0.3855 -1.6452,0.5811 -2.5778,0.5811 v 0 h -9 z m 3.2621,17.7446 h 5.5367 c 0.4243,0 0.8376,-0.1037 1.2344,-0.3073 v 0 c 0.3989,-0.204 0.7458,-0.4782 1.0497,-0.8274 v 0 c 0.2994,-0.3458 0.5426,-0.7537 0.7294,-1.2175 v 0 c 0.1811,-0.4663 0.2738,-0.9581 0.2738,-1.4799 v 0 c 0,-0.5256 -0.076,-1.0165 -0.2319,-1.4837 v 0 c -0.1536,-0.4632 -0.3713,-0.8765 -0.6398,-1.2342 v 0 c -0.2707,-0.3572 -0.5978,-0.6367 -0.9745,-0.8433 v 0 c -0.3801,-0.2044 -0.8022,-0.3047 -1.2685,-0.3047 v 0 h -5.7093 z" /></clipPath><linearGradient
       id="linearGradient460"
       spreadMethod="pad"
       gradientUnits="userSpaceOnUse"
       y2="398.69"
       x2="461.85001"
       y1="376.53"
       x1="462.32001"><stop
         id="stop452"
         offset="0"
         style="stop-opacity:1;stop-color:#317aa8" /><stop
         id="stop454"
         offset="0.46"
         style="stop-opacity:1;stop-color:#317aa8" /><stop
         id="stop456"
         offset="0.73"
         style="stop-opacity:1;stop-color:#2c5370" /><stop
         id="stop458"
         offset="1"
         style="stop-opacity:1;stop-color:#2a3b5c" /></linearGradient><clipPath
       id="clipPath470"
       clipPathUnits="userSpaceOnUse"><path
         style="clip-rule:evenodd"
         id="path468"
         d="m 482.6534,400.9484 h -0.0674 -0.0491 c -1.0315,-0.005 -1.9953,-0.144 -2.8947,-0.4107 v 0 c -0.9136,-0.271 -1.7005,-0.6698 -2.3743,-1.2036 v 0 c -0.6699,-0.5335 -1.1923,-1.19 -1.5693,-1.9746 v 0 c -0.3801,-0.7821 -0.57,-1.6815 -0.57,-2.6872 v 0 c 0,-0.813 0.1281,-1.5058 0.3943,-2.075 v 0 c 0.2619,-0.5726 0.642,-1.0698 1.1471,-1.4973 v 0 c 0.506,-0.4243 1.1427,-0.7877 1.9106,-1.0893 v 0 c 0.7688,-0.2985 1.6651,-0.5837 2.6926,-0.8544 v 0 c 0.8915,-0.2353 1.6872,-0.4498 2.3879,-0.6539 v 0 c 0.6985,-0.2067 1.2906,-0.4388 1.7768,-0.6954 v 0 c 0.4861,-0.2659 0.8518,-0.57 1.1038,-0.9159 v 0 c 0.254,-0.3492 0.379,-0.7854 0.379,-1.3104 v 0 c 0,-0.8685 -0.3436,-1.5336 -1.0332,-1.9888 v 0 c -0.6872,-0.4552 -1.6563,-0.684 -2.8962,-0.684 v 0 c -0.8155,0 -1.6007,0.095 -2.3579,0.2795 v 0 c -0.7568,0.1811 -1.455,0.4045 -2.0828,0.6673 v 0 c -0.6288,0.2596 -1.1821,0.5471 -1.6453,0.8575 v 0 c -0.4663,0.3072 -0.8243,0.589 -1.0752,0.8407 v 0 l -1.5171,-2.7876 c 1.1846,-0.9105 2.5138,-1.6033 3.989,-2.0752 v 0 c 1.4774,-0.4751 3.0021,-0.7127 4.5722,-0.7127 v 0 c 1.0301,0 1.9999,0.1117 2.9129,0.3326 v 0 c 0.9105,0.2233 1.7124,0.5726 2.4021,1.0476 v 0 c 0.6897,0.4717 1.2376,1.0894 1.6452,1.8431 v 0 c 0.4045,0.7569 0.6112,1.673 0.6112,2.7601 v 0 c 0,0.9468 -0.1613,1.7425 -0.4941,2.3791 v 0 c -0.3291,0.6398 -0.7931,1.179 -1.3822,1.6144 v 0 c -0.5955,0.4362 -1.3127,0.7965 -2.1569,1.0896 v 0 c -0.843,0.288 -1.7702,0.5667 -2.7813,0.8382 v 0 c -0.8549,0.2146 -1.601,0.4133 -2.2405,0.5978 v 0 c -0.6423,0.1837 -1.1758,0.3935 -1.6033,0.6256 v 0 c -0.4269,0.2319 -0.7483,0.5083 -0.9604,0.8266 v 0 c -0.2123,0.3184 -0.3214,0.7316 -0.3214,1.2342 v 0 c 0,0.9105 0.3325,1.6144 0.9918,2.1203 v 0 c 0.6588,0.5029 1.6311,0.7538 2.9106,0.7538 v 0 c 0.6809,0 1.3181,-0.0664 1.9216,-0.2035 v 0 c 0.6033,-0.1338 1.1535,-0.307 1.6444,-0.5225 v 0 c 0.4972,-0.2123 0.9278,-0.4385 1.296,-0.6817 v 0 c 0.3691,-0.2429 0.654,-0.4686 0.8464,-0.6809 v 0 l 1.4837,2.6697 c -0.8915,0.6596 -1.9247,1.2098 -3.1003,1.6563 v 0 c -1.1554,0.4402 -2.4394,0.6636 -3.8463,0.6706" /></clipPath><linearGradient
       id="linearGradient480"
       spreadMethod="pad"
       gradientUnits="userSpaceOnUse"
       y2="399.12"
       x2="482.07001"
       y1="376.95001"
       x1="482.54001"><stop
         id="stop472"
         offset="0"
         style="stop-opacity:1;stop-color:#317aa8" /><stop
         id="stop474"
         offset="0.46"
         style="stop-opacity:1;stop-color:#317aa8" /><stop
         id="stop476"
         offset="0.73"
         style="stop-opacity:1;stop-color:#2c5370" /><stop
         id="stop478"
         offset="1"
         style="stop-opacity:1;stop-color:#2a3b5c" /></linearGradient><clipPath
       id="clipPath490"
       clipPathUnits="userSpaceOnUse"><path
         style="clip-rule:evenodd"
         id="path488"
         d="m 260.0376,457.4375 15.6204,4.2778 -7.9178,-22.8427 c -5.2123,-4.6809 -10.3805,-6.2269 -16.4021,-9.0941 v 0 z" /></clipPath><linearGradient
       id="linearGradient500"
       spreadMethod="pad"
       gradientUnits="userSpaceOnUse"
       y2="425.32001"
       x2="273.56"
       y1="465.95999"
       x1="249.5"><stop
         id="stop492"
         offset="0"
         style="stop-opacity:1;stop-color:#317aa8" /><stop
         id="stop494"
         offset="0.46"
         style="stop-opacity:1;stop-color:#317aa8" /><stop
         id="stop496"
         offset="0.73"
         style="stop-opacity:1;stop-color:#2c5370" /><stop
         id="stop498"
         offset="1"
         style="stop-opacity:1;stop-color:#2a3b5c" /></linearGradient><clipPath
       id="clipPath510"
       clipPathUnits="userSpaceOnUse"><path
         style="clip-rule:evenodd"
         id="path508"
         d="m 261.4827,454.1068 10.5531,3.5493 -4.9974,-14.0287 c -3.4575,-3.1045 -6.8862,-4.1312 -10.8808,-6.0327 v 0 z" /></clipPath><linearGradient
       id="linearGradient516"
       spreadMethod="pad"
       gradientUnits="userSpaceOnUse"
       y2="447.63"
       x2="271.81"
       y1="447.63"
       x1="256.16"><stop
         id="stop512"
         offset="0"
         style="stop-opacity:1;stop-color:#9bd0f2" /><stop
         id="stop514"
         offset="1"
         style="stop-opacity:1;stop-color:#46a2da" /></linearGradient><clipPath
       id="clipPath526"
       clipPathUnits="userSpaceOnUse"><path
         style="clip-rule:evenodd"
         id="path524"
         d="m 110.6396,455.3906 -0.5595,-9.3393 c 5.178,1.0171 13.166,2.2346 20.8488,1.9755 v 0 c 20.0554,-0.6761 23.4269,-11.1651 23.6506,-17.3577 v 0 c 0.2616,-7.1963 -1.5565,-12.6456 -5.5506,-16.6555 v 0 c -1.6551,-1.6602 -3.6779,-3.0699 -6.1197,-4.2466 4.6676,0.9397 8.5819,2.6856 11.6941,5.2203 v 0 c 7.107,5.7912 7.2258,13.9343 6.6648,18.2721 v 0 c -1.1327,8.7395 -6.5883,16.7514 -13.2483,19.4806 v 0 c -4.5462,1.8351 -10.163,2.8083 -17.6783,3.0617 v 0 c -5.8872,0.1984 -12.8182,-0.0496 -19.7019,-0.4111 z" /></clipPath><linearGradient
       id="linearGradient532"
       spreadMethod="pad"
       gradientUnits="userSpaceOnUse"
       y2="431.97"
       x2="160.89"
       y1="433.70001"
       x1="109.34"><stop
         id="stop528"
         offset="0"
         style="stop-opacity:1;stop-color:#9bd0f2" /><stop
         id="stop530"
         offset="1"
         style="stop-opacity:1;stop-color:#46a2da" /></linearGradient></defs><g
     transform="matrix(1.3333333,0,0,-1.3333333,0,1122.5197)"
     id="g10"><g
       id="g12"><g
         clip-path="url(#clipPath18)"
         id="g14"><path
           id="path26"
           style="fill:url(#linearGradient24);fill-rule:evenodd;stroke:none"
           d="m 196.9404,459.3713 h -14.6886 l -18.2582,-51.586 c 5.3093,4.8827 10.5545,6.4321 16.685,9.3512 v 0 l 5.5979,16.8784 c 1.5247,4.3523 3.2649,11.969 3.2649,11.969 v 0 h 0.218 c 0,0 1.6316,-7.6167 3.0472,-11.969 v 0 l 4.2747,-12.8849 c 4.2653,1.1338 8.4495,1.9494 12.4013,2.533 z" /></g></g><g
       id="g28"><g
         clip-path="url(#clipPath34)"
         id="g30"><path
           id="path46"
           style="fill:url(#linearGradient44);fill-rule:evenodd;stroke:none"
           d="m 194.3711,455.7427 h -9.5556 l -14.063,-39.9441 c 2.2201,1.4077 4.5417,2.7204 6.9659,3.9302 v 0 l 5.1369,15.4848 c 1.4355,4.1086 3.1337,11.505 3.1471,11.5801 v 0 c 0.3801,1.6509 1.8496,2.818 3.539,2.818 v 0 h 0.218 c 1.7124,0 3.1898,-1.1926 3.5476,-2.8687 v 0 c 0.0136,-0.072 1.6089,-7.4852 2.9437,-11.588 v 0 l 3.4813,-10.0661 c 1.6897,0.3934 3.41,0.7537 5.1585,1.0751 z" /></g></g><g
       id="g48"><g
         clip-path="url(#clipPath54)"
         id="g50"><path
           id="path62"
           style="fill:url(#linearGradient60);fill-rule:evenodd;stroke:none"
           d="m 200.1059,412.3687 9.568,-30.2661 h 14.474 l -12.6488,36.0932 c -4.1329,-1.4598 -7.7261,-3.7544 -11.3932,-5.8271" /></g></g><g
       id="g64"><g
         clip-path="url(#clipPath70)"
         id="g66"><path
           id="path82"
           style="fill:url(#linearGradient80);fill-rule:evenodd;stroke:none"
           d="m 204.2189,410.6546 8.1003,-24.9265 h 6.7062 l -9.6562,27.2778 c -1.7649,-0.7228 -3.4852,-1.5106 -5.1503,-2.3513" /></g></g><g
       id="g84"><g
         clip-path="url(#clipPath90)"
         id="g86"><path
           id="path98"
           style="fill:url(#linearGradient96);fill-rule:evenodd;stroke:none"
           d="m 233.6179,382.1014 h 14.6888 l 18.2583,51.5863 c -5.3096,-4.8826 -10.5548,-6.4318 -16.6853,-9.3509 v 0 l -5.5973,-16.8786 c -1.5256,-4.3517 -3.2658,-11.9684 -3.2658,-11.9684 v 0 h -0.2177 c 0,0 -1.6319,7.6167 -3.047,11.9684 v 0 l -4.1697,12.9149 -0.0142,-0.004 -12.6836,39.0019 h -14.4743 l 15.6084,-43.9991 0.0213,0.002 11.5781,-33.2723 z" /></g></g><g
       id="g100"><g
         clip-path="url(#clipPath106)"
         id="g102"><path
           id="path118"
           style="fill:url(#linearGradient116);fill-rule:evenodd;stroke:none"
           d="m 236.1869,385.7309 h 9.5553 l 14.0636,39.9436 c -2.2198,-1.4071 -4.5411,-2.7199 -6.9659,-3.9297 v 0 L 247.7032,406.26 c -1.4354,-4.1088 -3.1337,-11.5053 -3.1473,-11.5804 v 0 c -0.3801,-1.6509 -1.8496,-2.8176 -3.5393,-2.8176 v 0 h -0.2177 c -1.7124,0 -3.1898,1.192 -3.5478,2.8681 v 0 c -0.0137,0.0717 -1.6084,7.4849 -2.9438,11.5883 v 0 c -5.4451,16.4968 -10.7686,32.8895 -16.0685,49.4271 h -6.7056 c 8.2193,-23.3441 16.4384,-46.6594 24.6537,-70.0146" /></g></g><g
       id="g120"><g
         clip-path="url(#clipPath126)"
         id="g122"><path
           id="path134"
           style="fill:url(#linearGradient132);fill-rule:evenodd;stroke:none"
           d="m 109.7328,380.6031 h 14.0375 v 23.2829 c -5.7901,0.6619 -10.7946,1.8042 -14.0375,2.6705 z" /></g></g><g
       id="g136"><g
         clip-path="url(#clipPath142)"
         id="g138"><path
           id="path154"
           style="fill:url(#linearGradient152);fill-rule:evenodd;stroke:none"
           d="m 120.1425,384.2308 v 16.4739 c -2.486,0.3687 -4.7764,0.8076 -6.7845,1.243 v -17.7169 z" /></g></g><g
       id="g156"><g
         clip-path="url(#clipPath162)"
         id="g158"><path
           id="path170"
           style="fill:url(#linearGradient168);fill-rule:evenodd;stroke:none"
           d="m 109.7328,439.9087 v -26.5544 c 5.2594,0.0453 9.9323,0.2795 14.0375,0.7038 v 0 28.1965 c -5.3759,-0.4773 -10.5072,-1.5106 -14.0375,-2.3459" /></g></g><g
       id="g172"><g
         clip-path="url(#clipPath178)"
         id="g174"><path
           id="path190"
           style="fill:url(#linearGradient188);fill-rule:evenodd;stroke:none"
           d="m 120.1425,417.3795 v 20.8088 c -2.4662,-0.3435 -4.7877,-0.7713 -6.7845,-1.1869 v 0 -19.951 c 2.399,0.064 4.6642,0.1757 6.7845,0.3291" /></g></g><g
       id="g192"><g
         clip-path="url(#clipPath198)"
         id="g194"><path
           id="path210"
           style="fill:url(#linearGradient208);fill-rule:evenodd;stroke:none"
           d="m 110.6688,453.6278 c 6.8616,0.5924 13.7778,1.0735 19.677,1.0735 v 0 c 7.5308,0 13.2052,-0.7824 17.8617,-2.4611 v 0 c 6.8238,-2.4996 12.7593,-10.3119 14.4158,-18.9958 v 0 c 0.8204,-4.3098 1.1895,-12.4407 -5.5703,-18.4592 v 0 c -2.9605,-2.6345 -6.7703,-4.5088 -11.3817,-5.6035 v 0 c 2.372,1.2566 4.3101,2.7314 5.8655,4.4438 v 0 c 3.7539,4.1366 5.2455,9.6361 4.553,16.8092 v 0 c -0.5947,6.1724 -4.5947,16.5268 -24.6909,16.5268 v 0 c -7.6986,0 -15.6133,-1.4836 -20.7301,-2.673 v 0 z" /></g></g><g
       id="g212"><g
         clip-path="url(#clipPath218)"
         id="g214"><path
           id="path230"
           style="fill:url(#linearGradient228);fill-rule:evenodd;stroke:none"
           d="m 104.1769,460.4743 v -18.904 c 0,0 43.3355,13.1981 45.4439,-8.6641 v 0 c 1.3598,-14.1188 -6.0327,-22.3364 -42.8661,-22.1519 v 0 c 0,0 33.9537,-11.4996 51.0143,3.6839 v 0 c 15.099,13.4433 5.0295,39.1652 -10.2566,44.7546 v 0 c -5.4354,1.9632 -11.6419,2.7204 -19.3255,2.7204 -6.715,0 -14.5601,-0.5783 -24.01,-1.4389" /></g></g><g
       id="g232"><g
         clip-path="url(#clipPath238)"
         id="g234"><path
           id="path250"
           style="fill:url(#linearGradient248);fill-rule:evenodd;stroke:none"
           d="m 210.3239,421.1728 c -21.0299,-3.0076 -49.227,-11.2584 -60.4001,-40.57 h 20.0407 c 5.8578,15.2008 17.6043,30.8307 40.3594,40.57" /></g></g><g
       id="g252"><g
         clip-path="url(#clipPath258)"
         id="g254"><path
           id="path266"
           style="fill:url(#linearGradient264);fill-rule:evenodd;stroke:none"
           d="m 157.6134,383.0624 h 10.4241 c 1.3672,3.9246 4.5267,11.192 10.9814,18.6772 v 0 c 2.9461,3.4163 6.8063,7.1147 11.7865,10.5755 -13.5051,-4.6905 -26.6627,-13.3657 -33.192,-29.2527 z" /></g></g><g
       id="g268"><g
         clip-path="url(#clipPath274)"
         id="g270"><path
           id="path282"
           style="fill:url(#linearGradient280);fill-rule:evenodd;stroke:none"
           d="m 286.34,411.4128 h 11.5399 v 49.8277 H 286.34 Z m 157.0553,0 h 12.238 l 3.8024,11.1606 h 15.5523 l 3.869,-11.1606 h 12.242 l -19.137,49.8277 h -9.3594 z m 23.851,37.6141 5.7722,-18.5242 H 461.2683 Z M 400.61,411.4128 h 11.5398 v 16.0696 h 7.5308 l 10.0622,-16.0696 h 13.0169 l -11.4689,18.5247 c 1.2668,0.7058 2.3995,1.5579 3.4123,2.5637 v 0 c 1.0089,1.0054 1.8638,2.1415 2.5696,3.4055 v 0 c 0.7022,1.264 1.2413,2.605 1.6152,4.0326 v 0 c 0.3764,1.4295 0.5647,2.9146 0.5647,4.4555 v 0 c 0,2.0619 -0.4113,4.096 -1.2286,6.1103 v 0 c -0.8271,2.0075 -1.9638,3.8115 -3.4163,5.4012 v 0 c -1.4522,1.5891 -3.1793,2.8757 -5.1707,3.8591 v 0 c -1.9956,0.9827 -4.1626,1.4751 -6.5092,1.4751 v 0 H 400.61 Z m 11.5398,39.7213 h 10.2056 c 1.3116,0 2.5313,-0.6074 3.6581,-1.826 v 0 c 1.1239,-1.2138 1.6889,-2.8514 1.6889,-4.9133 v 0 c 0,-2.0112 -0.4944,-3.6579 -1.4817,-4.9479 v 0 c -0.9827,-1.2861 -2.1543,-1.9273 -3.5144,-1.9273 v 0 h -10.5565 z m -51.2946,-39.7213 h 11.5433 v 19.6515 h 18.4342 v 9.3305 h -18.4342 v 10.7393 h 22.3735 v 10.1064 h -33.9168 z m -53.4056,0 h 11.5438 v 28.4936 l 23.0089,-28.4936 h 9.2891 v 49.8277 h -11.5432 v -29.266 l -23.2895,29.266 h -9.0091 z" /></g></g><g
       id="g284"><g
         clip-path="url(#clipPath290)"
         id="g286"><path
           id="path302"
           style="fill:url(#linearGradient300);fill-rule:evenodd;stroke:none"
           d="m 286.3397,380.1818 h 7.3404 0.072 c 1.5052,0.008 2.8669,0.2534 4.0895,0.7402 v 0 c 1.2461,0.494 2.3015,1.1894 3.1765,2.0888 v 0 c 0.8708,0.8994 1.5438,1.9865 2.022,3.2539 v 0 c 0.4742,1.2685 0.7149,2.6872 0.7149,4.2542 v 0 c 0,1.4131 -0.2152,2.7425 -0.6429,3.9943 v 0 c -0.4267,1.2487 -1.0608,2.338 -1.9072,3.2675 v 0 c -0.8433,0.9304 -1.8907,1.6651 -3.1447,2.2065 v 0 c -1.2518,0.5394 -2.7128,0.8133 -4.3801,0.8133 v 0 h -7.3404 z m 3.263,17.7446 h 4.0774 c 1.0641,0 2.0165,-0.1845 2.8519,-0.5533 v 0 c 0.8354,-0.366 1.5446,-0.8742 2.1257,-1.5219 v 0 c 0.5805,-0.6509 1.0222,-1.4329 1.3263,-2.338 v 0 c 0.2994,-0.9105 0.4496,-1.9106 0.4496,-2.9943 v 0 c 0,-1.0641 -0.1448,-2.0531 -0.4385,-2.9636 v 0 c -0.2897,-0.9074 -0.7206,-1.6982 -1.2929,-2.3627 v 0 c -0.5726,-0.6704 -1.2818,-1.1931 -2.1282,-1.5698 v 0 c -0.8439,-0.3801 -1.81,-0.5669 -2.8939,-0.5669 v 0 h -4.0774 z" /></g></g><g
       id="g304"><g
         clip-path="url(#clipPath310)"
         id="g306"><path
           id="path322"
           style="fill:url(#linearGradient320);fill-rule:evenodd;stroke:none"
           d="m 309.5198,380.1818 h 14.1809 v 2.8741 h -10.9182 v 6.3039 h 9.231 v 2.6981 h -9.231 v 5.8685 h 10.6585 v 2.8741 h -13.9212 z" /></g></g><g
       id="g324"><g
         clip-path="url(#clipPath330)"
         id="g326"><path
           id="path342"
           style="fill:url(#linearGradient340);fill-rule:evenodd;stroke:none"
           d="m 335.5824,380.1818 h 2.7958 l 8.2428,20.6187 h -3.4387 l -6.2008,-16.5237 -6.262,16.5237 h -3.4662 z" /></g></g><g
       id="g344"><g
         clip-path="url(#clipPath350)"
         id="g346"><path
           id="path362"
           style="fill:url(#linearGradient360);fill-rule:evenodd;stroke:none"
           d="m 351.3946,380.1818 h 14.1831 v 2.8741 h -10.9213 v 6.3039 h 9.231 v 2.6981 h -9.231 v 5.8685 h 10.6586 v 2.8741 h -13.9204 z" /></g></g><g
       id="g364"><g
         clip-path="url(#clipPath370)"
         id="g366"><path
           id="path382"
           style="fill:url(#linearGradient380);fill-rule:evenodd;stroke:none"
           d="m 371.3426,380.1818 h 14.3566 v 2.8741 h -11.0948 v 17.7446 h -3.2618 z" /></g></g><g
       id="g384"><g
         clip-path="url(#clipPath390)"
         id="g386"><path
           id="path402"
           style="fill:url(#linearGradient400);fill-rule:evenodd;stroke:none"
           d="m 398.4644,400.9484 h -0.068 -0.0663 c -1.3935,-0.008 -2.6785,-0.2967 -3.8662,-0.8574 -1.2042,-0.5724 -2.2399,-1.3437 -3.1173,-2.3103 v 0 c -0.8716,-0.9691 -1.5556,-2.0806 -2.0497,-3.3372 v 0 c -0.487,-1.2399 -0.7356,-2.5376 -0.7435,-3.8883 v -0.0641 -0.0617 c 0.007,-1.2969 0.2392,-2.5645 0.6984,-3.8013 v 0 c 0.4641,-1.2594 1.1313,-2.3769 1.9945,-3.3545 v 0 c 0.866,-0.9777 1.8938,-1.7623 3.0861,-2.3516 v 0 c 1.1925,-0.5897 2.5194,-0.8859 3.9747,-0.8859 v 0 c 1.4188,0 2.7235,0.2826 3.9189,0.8575 v 0 c 1.1948,0.5701 2.2258,1.3326 3.0997,2.2938 v 0 c 0.8751,0.9547 1.5591,2.0665 2.0563,3.3236 v 0 c 0.494,1.2597 0.7404,2.5779 0.7404,3.9493 v 0 c 0,1.296 -0.2353,2.5724 -0.6959,3.8211 v 0 c -0.4689,1.2483 -1.1285,2.3655 -1.9803,3.3545 v 0 c -0.8575,0.9856 -1.8828,1.7847 -3.0751,2.3933 v 0 c -1.1735,0.6026 -2.4783,0.9099 -3.9067,0.9192 z m -2.8051,-17.3565 c -0.7963,0.4187 -1.4772,0.9723 -2.0387,1.6705 v 0 c -0.5644,0.6984 -0.9944,1.4995 -1.296,2.4134 v 0 c -0.3016,0.9073 -0.453,1.8462 -0.453,2.8153 v 0 c 0,0.9304 0.1483,1.8431 0.4388,2.7457 v 0 c 0.2906,0.8994 0.7124,1.6951 1.2682,2.3936 v 0 c 0.5528,0.6981 1.2311,1.2651 2.0356,1.7007 v 0 c 0.8076,0.4329 1.7127,0.654 2.7238,0.654 v 0 c 0.9689,0 1.8542,-0.21 2.6507,-0.6256 v 0 c 0.7957,-0.4164 1.4743,-0.9697 2.0387,-1.6563 v 0 c 0.5612,-0.6848 1,-1.4805 1.3104,-2.38 v 0 c 0.3096,-0.8994 0.4663,-1.843 0.4663,-2.8321 v 0 c 0,-0.9303 -0.1482,-1.8408 -0.4388,-2.7314 v 0 c -0.2905,-0.8915 -0.7123,-1.6929 -1.2651,-2.4109 v 0 c -0.5559,-0.7149 -1.2342,-1.2906 -2.0387,-1.726 v 0 c -0.8075,-0.4354 -1.7126,-0.6534 -2.7235,-0.6534 v 0 c -0.989,0 -1.8853,0.2067 -2.6787,0.6225 z" /></g></g><g
       id="g404"><g
         clip-path="url(#clipPath410)"
         id="g406"><path
           id="path422"
           style="fill:url(#linearGradient420);fill-rule:evenodd;stroke:none"
           d="m 413.8007,380.1818 h 3.2619 v 7.1725 h 5.589 c 0.9357,0 1.7822,0.1868 2.5504,0.567 v 0 c 0.7679,0.3744 1.4218,0.8801 1.9632,1.508 v 0 c 0.5448,0.6287 0.9669,1.3436 1.2685,2.1481 v 0 c 0.2968,0.7948 0.4473,1.616 0.4522,2.4758 v 0.0411 0.0388 c -0.005,0.8155 -0.1664,1.6214 -0.4808,2.4134 v 0 c -0.3206,0.8019 -0.7622,1.5194 -1.3238,2.1478 v 0 c -0.5666,0.6288 -1.2399,1.137 -2.0245,1.5251 v 0 c -0.7852,0.3855 -1.6452,0.5811 -2.5778,0.5811 v 0 h -8.6783 z m 3.2619,17.7446 h 5.212 c 0.4278,0 0.8411,-0.0927 1.2376,-0.2764 v 0 c 0.3991,-0.1845 0.7538,-0.4441 1.0641,-0.7854 v 0 c 0.3096,-0.3379 0.5528,-0.737 0.7291,-1.2033 v 0 c 0.176,-0.4641 0.26,-0.989 0.26,-1.567 v 0 c 0,-0.5644 -0.0786,-1.0783 -0.2353,-1.5424 v 0 c -0.1505,-0.4631 -0.3657,-0.8708 -0.639,-1.22 v 0 c -0.2684,-0.3492 -0.5952,-0.6199 -0.9722,-0.813 v 0 c -0.3802,-0.1924 -0.802,-0.2905 -1.2708,-0.2905 v 0 h -5.3855 z" /></g></g><g
       id="g424"><g
         clip-path="url(#clipPath430)"
         id="g426"><path
           id="path442"
           style="fill:url(#linearGradient440);fill-rule:evenodd;stroke:none"
           d="m 434.154,380.1818 h 14.1804 v 2.8741 h -10.9151 v 6.3039 h 9.2279 v 2.6981 h -9.2279 v 5.8685 h 10.6554 v 2.8741 H 434.154 Z" /></g></g><g
       id="g444"><g
         clip-path="url(#clipPath450)"
         id="g446"><path
           id="path462"
           style="fill:url(#linearGradient460);fill-rule:evenodd;stroke:none"
           d="m 454.102,380.1818 h 3.2621 v 7.1725 h 4.7767 l 4.5445,-7.1725 h 3.6975 l -4.9215,7.8398 c 0.6009,0.1933 1.1568,0.4893 1.6594,0.8884 v 0 c 0.506,0.3943 0.9303,0.8631 1.2796,1.4077 v 0 c 0.3492,0.5391 0.6224,1.1316 0.8177,1.7711 v 0 c 0.1934,0.6397 0.2909,1.3042 0.2909,2.0055 v 0 c 0,0.8291 -0.1593,1.6477 -0.4808,2.4522 v 0 c -0.3206,0.8019 -0.7625,1.5194 -1.326,2.1478 v 0 c -0.5616,0.6288 -1.2376,1.137 -2.0223,1.5251 v 0 c -0.7854,0.3855 -1.6452,0.5811 -2.5778,0.5811 v 0 h -9 z m 3.2621,17.7446 h 5.5367 c 0.4243,0 0.8376,-0.1037 1.2344,-0.3073 v 0 c 0.3989,-0.204 0.7458,-0.4782 1.0497,-0.8274 v 0 c 0.2994,-0.3458 0.5426,-0.7537 0.7294,-1.2175 v 0 c 0.1811,-0.4663 0.2738,-0.9581 0.2738,-1.4799 v 0 c 0,-0.5256 -0.076,-1.0165 -0.2319,-1.4837 v 0 c -0.1536,-0.4632 -0.3713,-0.8765 -0.6398,-1.2342 v 0 c -0.2707,-0.3572 -0.5978,-0.6367 -0.9745,-0.8433 v 0 c -0.3801,-0.2044 -0.8022,-0.3047 -1.2685,-0.3047 v 0 h -5.7093 z" /></g></g><g
       id="g464"><g
         clip-path="url(#clipPath470)"
         id="g466"><path
           id="path482"
           style="fill:url(#linearGradient480);fill-rule:evenodd;stroke:none"
           d="m 482.6534,400.9484 h -0.0674 -0.0491 c -1.0315,-0.005 -1.9953,-0.144 -2.8947,-0.4107 v 0 c -0.9136,-0.271 -1.7005,-0.6698 -2.3743,-1.2036 v 0 c -0.6699,-0.5335 -1.1923,-1.19 -1.5693,-1.9746 v 0 c -0.3801,-0.7821 -0.57,-1.6815 -0.57,-2.6872 v 0 c 0,-0.813 0.1281,-1.5058 0.3943,-2.075 v 0 c 0.2619,-0.5726 0.642,-1.0698 1.1471,-1.4973 v 0 c 0.506,-0.4243 1.1427,-0.7877 1.9106,-1.0893 v 0 c 0.7688,-0.2985 1.6651,-0.5837 2.6926,-0.8544 v 0 c 0.8915,-0.2353 1.6872,-0.4498 2.3879,-0.6539 v 0 c 0.6985,-0.2067 1.2906,-0.4388 1.7768,-0.6954 v 0 c 0.4861,-0.2659 0.8518,-0.57 1.1038,-0.9159 v 0 c 0.254,-0.3492 0.379,-0.7854 0.379,-1.3104 v 0 c 0,-0.8685 -0.3436,-1.5336 -1.0332,-1.9888 v 0 c -0.6872,-0.4552 -1.6563,-0.684 -2.8962,-0.684 v 0 c -0.8155,0 -1.6007,0.095 -2.3579,0.2795 v 0 c -0.7568,0.1811 -1.455,0.4045 -2.0828,0.6673 v 0 c -0.6288,0.2596 -1.1821,0.5471 -1.6453,0.8575 v 0 c -0.4663,0.3072 -0.8243,0.589 -1.0752,0.8407 v 0 l -1.5171,-2.7876 c 1.1846,-0.9105 2.5138,-1.6033 3.989,-2.0752 v 0 c 1.4774,-0.4751 3.0021,-0.7127 4.5722,-0.7127 v 0 c 1.0301,0 1.9999,0.1117 2.9129,0.3326 v 0 c 0.9105,0.2233 1.7124,0.5726 2.4021,1.0476 v 0 c 0.6897,0.4717 1.2376,1.0894 1.6452,1.8431 v 0 c 0.4045,0.7569 0.6112,1.673 0.6112,2.7601 v 0 c 0,0.9468 -0.1613,1.7425 -0.4941,2.3791 v 0 c -0.3291,0.6398 -0.7931,1.179 -1.3822,1.6144 v 0 c -0.5955,0.4362 -1.3127,0.7965 -2.1569,1.0896 v 0 c -0.843,0.288 -1.7702,0.5667 -2.7813,0.8382 v 0 c -0.8549,0.2146 -1.601,0.4133 -2.2405,0.5978 v 0 c -0.6423,0.1837 -1.1758,0.3935 -1.6033,0.6256 v 0 c -0.4269,0.2319 -0.7483,0.5083 -0.9604,0.8266 v 0 c -0.2123,0.3184 -0.3214,0.7316 -0.3214,1.2342 v 0 c 0,0.9105 0.3325,1.6144 0.9918,2.1203 v 0 c 0.6588,0.5029 1.6311,0.7538 2.9106,0.7538 v 0 c 0.6809,0 1.3181,-0.0664 1.9216,-0.2035 v 0 c 0.6033,-0.1338 1.1535,-0.307 1.6444,-0.5225 v 0 c 0.4972,-0.2123 0.9278,-0.4385 1.296,-0.6817 v 0 c 0.3691,-0.2429 0.654,-0.4686 0.8464,-0.6809 v 0 l 1.4837,2.6697 c -0.8915,0.6596 -1.9247,1.2098 -3.1003,1.6563 v 0 c -1.1554,0.4402 -2.4394,0.6636 -3.8463,0.6706" /></g></g><g
       id="g484"><g
         clip-path="url(#clipPath490)"
         id="g486"><path
           id="path502"
           style="fill:url(#linearGradient500);fill-rule:evenodd;stroke:none"
           d="m 260.0376,457.4375 15.6204,4.2778 -7.9178,-22.8427 c -5.2123,-4.6809 -10.3805,-6.2269 -16.4021,-9.0941 v 0 z" /></g></g><g
       id="g504"><g
         clip-path="url(#clipPath510)"
         id="g506"><path
           id="path518"
           style="fill:url(#linearGradient516);fill-rule:evenodd;stroke:none"
           d="m 261.4827,454.1068 10.5531,3.5493 -4.9974,-14.0287 c -3.4575,-3.1045 -6.8862,-4.1312 -10.8808,-6.0327 v 0 z" /></g></g><g
       id="g520"><g
         clip-path="url(#clipPath526)"
         id="g522"><path
           id="path534"
           style="fill:url(#linearGradient532);fill-rule:evenodd;stroke:none"
           d="m 110.6396,455.3906 -0.5595,-9.3393 c 5.178,1.0171 13.166,2.2346 20.8488,1.9755 v 0 c 20.0554,-0.6761 23.4269,-11.1651 23.6506,-17.3577 v 0 c 0.2616,-7.1963 -1.5565,-12.6456 -5.5506,-16.6555 v 0 c -1.6551,-1.6602 -3.6779,-3.0699 -6.1197,-4.2466 4.6676,0.9397 8.5819,2.6856 11.6941,5.2203 v 0 c 7.107,5.7912 7.2258,13.9343 6.6648,18.2721 v 0 c -1.1327,8.7395 -6.5883,16.7514 -13.2483,19.4806 v 0 c -4.5462,1.8351 -10.163,2.8083 -17.6783,3.0617 v 0 c -5.8872,0.1984 -12.8182,-0.0496 -19.7019,-0.4111 z" /></g></g></g></svg>